<svg width="1903" height="398" viewBox="0 0 1903 398" fill="none" xmlns="http://www.w3.org/2000/svg">
<path d="M339 0V379H0V0H339ZM32 347H307V32H32V347Z" fill="black"/>
<rect x="367" y="17" width="1536" height="381" fill="white"/>
<path d="M492.768 222.281V293.046C492.768 305.187 498.67 314.206 506.309 323.572H431.662C391.734 323.572 365 301.024 365 265.989V110.236C365 63.7535 391.734 53 431.662 53H506.309C498.67 62.019 492.768 71.0381 492.768 83.1791V122.377C492.768 134.518 498.67 157.066 506.309 166.085C479.575 165.044 457.354 149.435 438.605 152.557C444.161 145.619 452.146 140.762 452.146 126.193C452.146 112.665 445.202 90.1169 428.537 90.1169C418.121 90.1169 409.094 99.1359 409.094 117.868V258.704C409.094 277.089 418.121 286.108 429.231 286.108C448.674 286.108 452.146 260.091 452.146 248.991C452.146 203.896 452.146 190.367 420.551 183.429C433.398 178.226 443.466 176.839 452.493 176.839C466.034 176.839 476.797 180.307 489.643 180.307C494.851 180.307 500.406 179.614 506.309 178.226C498.67 187.592 492.768 210.14 492.768 222.281Z" fill="black"/>
<path d="M512.989 69.6506H580.692C573.401 79.0165 567.152 88.0356 567.152 100.177V248.991C567.152 267.723 576.526 272.579 588.331 272.579C600.483 272.579 609.51 267.723 609.51 248.991V100.177C609.51 88.0356 603.26 79.0165 595.969 69.6506H663.672C656.034 79.0165 650.132 88.0356 650.132 100.177V248.991C650.132 292.352 628.953 310.043 587.636 310.043C544.584 310.043 526.53 290.271 526.53 248.991V100.177C526.53 88.0356 520.28 79.0165 512.989 69.6506Z" fill="black"/>
<path d="M728.221 276.048C728.221 288.189 734.47 297.555 741.761 306.574H674.058C681.349 297.555 687.599 288.189 687.599 276.048V100.177C687.599 88.0356 681.349 79.0165 674.058 69.6506H741.761C734.47 79.0165 728.221 88.0356 728.221 100.177V276.048Z" fill="black"/>
<path d="M807.221 100.177V269.457H828.053C838.469 269.457 837.775 259.398 837.775 253.848C837.775 235.463 830.483 231.647 827.706 223.668C846.454 227.137 865.203 211.18 891.937 210.14C884.299 219.159 878.396 242.053 878.396 254.194V276.048C878.396 288.189 884.299 297.555 891.937 306.574H753.059C760.35 297.555 766.599 288.189 766.599 276.048V100.177C766.599 88.0356 760.35 79.0165 753.059 69.6506H820.762C813.471 79.0165 807.221 88.0356 807.221 100.177Z" fill="black"/>
<path d="M899.532 69.6506H969.665C1014.45 69.6506 1036.67 77.9758 1036.67 127.234V248.991C1036.67 286.108 1014.45 306.574 969.665 306.574H899.532C906.823 297.555 913.072 288.189 913.072 276.048V100.177C913.072 88.0356 906.823 79.0165 899.532 69.6506ZM953.694 269.457H968.277C987.025 269.457 996.052 260.091 996.052 241.706V134.865C996.052 116.133 987.025 107.114 968.277 107.114H953.694V269.457Z" fill="black"/>
<path d="M1099.88 100.177L1117.24 258.704L1141.19 100.177C1142.93 88.0356 1139.8 79.0165 1134.25 69.6506H1196.74C1191.54 79.0165 1188.06 88.0356 1189.8 100.177L1213.76 258.704L1231.12 100.177C1232.51 88.0356 1229.38 79.0165 1223.83 69.6506H1292.22C1282.85 79.0165 1273.82 88.0356 1272.43 100.177L1251.6 276.048C1250.21 288.189 1253.34 297.555 1258.89 306.574H1172.09C1177.65 297.555 1180.77 288.189 1179.39 276.048L1165.84 167.82L1151.96 276.048C1150.22 288.189 1153.69 297.555 1158.9 306.574H1072.45C1077.66 297.555 1080.78 288.189 1079.39 276.048L1058.91 100.177C1057.52 88.0356 1048.15 79.0165 1038.77 69.6506H1107.17C1101.61 79.0165 1098.84 88.0356 1099.88 100.177Z" fill="black"/>
<path d="M1294.68 248.991V127.234C1294.68 85.9542 1312.74 66.5286 1355.79 66.5286C1397.1 66.5286 1418.28 83.8729 1418.28 127.234V248.991C1418.28 292.352 1397.1 310.043 1355.79 310.043C1312.74 310.043 1294.68 290.271 1294.68 248.991ZM1356.48 272.579C1368.63 272.579 1377.66 267.723 1377.66 248.991V127.234C1377.66 108.849 1368.63 103.645 1356.48 103.645C1344.68 103.645 1335.3 108.849 1335.3 127.234V248.991C1335.3 267.723 1344.68 272.579 1356.48 272.579Z" fill="black"/>
<path d="M1497.38 215.343H1490.79V276.048C1490.79 288.189 1497.04 297.555 1504.33 306.574H1436.62C1443.92 297.555 1450.16 288.189 1450.16 276.048V215.343H1436.62C1443.92 205.977 1450.16 196.958 1450.16 184.817V100.177C1450.16 88.0356 1443.92 79.0165 1436.62 69.6506H1506.76C1551.55 69.6506 1573.77 89.0762 1573.77 127.234V157.76C1573.77 185.858 1556.41 205.977 1529.67 212.568C1539.05 212.915 1552.93 212.221 1563.35 207.018C1555.37 214.302 1555.37 229.565 1561.61 244.828L1574.46 276.048C1578.97 287.842 1594.25 319.756 1609.18 323.572C1602.93 325.306 1597.38 326 1592.17 326C1564.39 326 1547.73 306.574 1528.63 306.574C1535.23 296.168 1536.27 288.536 1531.06 276.048L1510.23 224.015C1507.8 218.118 1503.63 215.343 1497.38 215.343ZM1490.79 177.879H1505.37C1524.12 177.879 1533.14 168.86 1533.14 150.128V131.396C1533.14 112.665 1524.12 107.114 1505.37 107.114H1490.79V177.879Z" fill="black"/>
<path d="M1614.62 180.307V100.177C1614.62 88.0356 1608.37 79.0165 1601.08 69.6506H1668.78C1661.14 79.0165 1655.24 88.0356 1655.24 100.177V145.272L1684.4 100.177C1692.39 87.6887 1694.12 79.0165 1693.78 69.6506H1758.7C1744.12 79.0165 1734.05 87.3418 1725.72 100.177L1682.32 164.351C1691 162.269 1700.37 158.107 1710.09 150.822L1709.75 152.21C1705.93 167.82 1703.15 182.042 1709.4 196.958L1741.69 276.048C1746.55 287.842 1758.36 319.756 1773.28 323.572C1767.38 325.306 1762.17 325.653 1756.97 325.653C1730.23 325.653 1714.96 306.574 1696.21 306.574C1702.46 296.168 1703.5 288.189 1698.64 276.048L1663.92 191.755L1655.24 204.59V276.048C1655.24 288.189 1661.14 297.555 1668.78 306.574H1601.08C1608.37 297.555 1614.62 288.189 1614.62 276.048V214.996H1599.34L1604.89 208.058C1611.14 200.08 1614.62 190.714 1614.62 180.307Z" fill="black"/>
<path d="M1828.7 163.31L1879.04 180.654C1892.93 185.858 1899.53 205.283 1899.53 220.199V248.991C1899.53 284.374 1879.74 306.574 1839.81 306.574H1765.16C1772.45 297.555 1778.7 288.189 1778.7 276.048V254.194C1778.7 242.053 1772.45 219.159 1765.16 210.14C1793.29 206.324 1812.03 222.628 1829.39 223.668C1826.27 231.647 1819.33 235.463 1819.33 252.807C1819.33 263.56 1822.1 269.457 1839.12 269.457C1849.88 269.457 1858.91 267.029 1858.91 248.297V230.606C1858.91 221.24 1854.39 215.69 1845.71 212.221L1805.09 196.611C1786.69 189.673 1775.23 174.757 1775.23 156.025V127.234C1775.23 80.7509 1795.37 69.6506 1835.3 69.6506H1903C1895.36 79.0165 1889.46 88.0356 1889.46 100.177V122.377C1889.46 134.518 1895.36 157.066 1903 166.085C1876.27 165.044 1857.52 149.435 1838.77 152.557C1841.55 144.578 1848.84 140.762 1848.84 124.112C1848.84 112.665 1845.37 107.114 1833.56 107.114C1818.28 107.114 1815.85 116.133 1815.85 134.865V144.578C1815.85 153.597 1820.02 160.188 1828.7 163.31Z" fill="black"/>
<rect x="365" width="1538" height="36" fill="black"/>
<rect x="365" y="343" width="1538" height="36" fill="black"/>
<g clip-path="url(#clip0_11_44)">
<path d="M91.0946 376C91.7281 369.569 92.6543 363.071 93.0334 356.616C93.9884 340.206 94.3724 320.693 91.4257 304.527C90.9554 301.942 89.5637 294.682 88.3351 292.763C87.7257 291.819 87.121 291.579 86.2668 290.999C83.6129 289.196 72.148 282.065 69.7676 282.06C68.0112 282.055 65.8228 282.913 64.0088 283.048C57.0022 283.566 49.3141 280.976 45.1581 275.073C43.824 273.178 40.815 265.52 40.0567 264.839C38.1515 263.132 34.3794 262.456 32.1143 261.276C12.203 250.922 5.55634 239.998 12.9373 217.641C24.2246 183.473 57.3669 164.243 82.7011 141.708C96.3784 129.542 103.975 109.487 119.644 97.6563C128.58 90.9089 136.067 93.254 144.974 98.5339L160.59 81.1835C160.34 80.6321 159.822 80.3299 159.414 79.9319C155.08 75.731 146.01 71.4198 142.632 67.4779C140.371 64.8403 140.453 61.095 141.845 58.0354C143.049 55.3931 155.906 40.6371 158.516 38.2873C166.9 30.7343 177.665 43.9221 185.06 47.6051C186.533 48.5354 187.973 46.9289 189.067 46.9721C190.637 47.0344 204.515 56.4577 206.181 58.1073C209.089 60.9895 207.04 62.3274 207.832 63.6222C208.518 64.7396 216.758 69.7557 218.644 71.5253C222.843 75.4672 224.835 80.704 222.349 86.2572C221.13 88.9811 210.207 101.181 207.62 103.162C196.798 111.463 187.028 98.0543 178.125 93.3115C176.758 93.3019 162.466 109.559 160.278 111.765C162.269 115.64 165.086 121.74 161.118 125.202L161.108 125.897C165.336 127.691 165.792 137.785 163.719 141.214C162.62 143.027 157.058 149.29 155.363 150.59C149.825 154.843 145.362 153.299 139.066 152.484C135.159 155.932 132.184 162.296 127.39 164.319C124.194 165.672 121.17 165.897 117.725 165.662C116.386 165.571 114.404 164.689 113.367 164.751C112.086 164.828 106.72 172.122 105.578 173.661C100.448 180.576 96.6087 187.434 93.2782 195.39C92.7263 196.708 89.6501 203.839 90.1732 204.448C93.2734 205.072 96.1672 206.894 99.2386 207.604C106.696 209.34 118.416 206.832 126.843 207.326C135.659 207.844 143.318 211.311 152.095 209.124C156.064 208.136 166.512 203.672 168.81 200.435C169.415 199.581 169.108 198.483 169.703 197.49C170.543 196.08 172.914 196.128 174.262 194.378C175.611 192.627 176.143 189.817 177.401 187.933C171.728 186.254 169.785 178.404 170.274 173.143C170.485 170.884 171.944 167.715 171.983 165.815C172.007 164.535 170.98 163.192 170.807 161.955C167.563 139.028 178.773 122.905 199.822 114.997C224.115 105.871 257.075 111.88 265.742 139.191C272.604 142.212 286.968 149.117 280.887 158.637C278.891 161.758 274.303 163.835 271.136 161.356L270.651 161.816C269.552 165.048 269.264 170.213 267.474 173.033C267.124 173.589 266.164 173.719 266.073 174.131C265.756 175.574 270.421 186.945 271.136 189.611C272.196 193.567 273.415 195.457 269.322 197.855C266.711 199.38 264.551 198.713 262.291 199.902C262.752 200.929 263.419 202.286 263.592 203.374C264.177 207.115 261.135 212.097 260.895 216.735C260.467 224.925 264.321 233.025 256.009 238.679C250.668 242.314 245.576 240.53 239.913 239.969C239.38 239.916 238.19 239.528 238.301 240.382C242.106 243.34 246.478 244.036 250.745 245.911C264.527 251.977 280.115 261.674 286.579 275.734C294.056 292.01 295.112 312.497 297.367 330.111C297.838 332.255 303.621 335.425 304.974 338.801C307.393 344.824 310.272 364.14 308.429 370.111C307.983 371.554 305.771 375.966 304.22 375.966H257.478C258.322 370.36 261.187 365.373 262.891 360.055C267.815 344.637 271.606 325.272 272.815 309.126C272.854 308.603 273.027 306.977 272.58 306.973C269.298 318.938 266.058 330.931 262.401 342.795C259.599 351.893 256.489 362.644 253.187 371.434C252.631 372.921 251.868 374.633 251.009 375.966H91.0946V376Z" fill="black"/>
<path d="M138.739 110.878C138.442 110.662 138.331 110.034 137.76 109.727C136.762 109.19 132.688 108.13 132.865 110.259C134.679 113.976 138.053 115.875 140.673 119.251C142.195 121.212 147.157 128.31 147.032 130.4C146.907 132.491 144.762 135.556 142.401 134.29L126.031 116.872L122.95 118.239C122.471 118.992 123.757 120.301 124.189 120.867C128.412 126.377 134.473 131.551 137.914 137.81C140.621 142.725 137.04 148.288 132.582 143.617C129.684 137.014 122.072 133.93 117.46 128.516C116.875 128.07 116.333 128.535 115.982 129.01C114.173 131.479 122.73 138.366 124.419 140.27C127.082 143.272 131.781 147.895 130.043 152.134C129.64 153.112 124.918 158.335 123.91 158.493C119.764 159.15 122.941 154.34 122.725 152.542C122.216 148.398 116.784 145.933 113.871 143.627C112.82 142.792 111.961 140.39 109.854 140.821C108.86 142.845 107.21 144.485 106.178 146.485C105.563 147.679 103.605 152.076 103.303 153.199C102.775 155.17 103.903 156.747 103.332 157.984C102.19 160.44 96.1238 167.254 94.0602 170.304C81.5298 188.844 74.0529 213.579 60.3996 229.611C59.2335 230.978 54.6024 234.896 54.1849 235.859C53.8057 236.737 55.2598 236.9 55.7685 236.886C63.1351 236.66 71.519 229.242 77.1867 225.074C75.9581 234.915 71.3223 244.693 62.9575 250.376C57.2706 254.236 53.9017 255.166 47.0919 253.474C41.4386 252.068 30.6743 245.992 26.144 242.31C18.1728 235.831 23.5861 220.197 27.2478 212.294C39.4518 185.967 62.0313 170.467 83.1711 152.239C93.5899 143.257 95.9318 138.265 103.649 127.667C106.437 123.84 118.339 107.713 121.338 106.058C122.648 105.339 124.573 105.512 125.048 105.209C125.393 104.989 126.089 102.059 127.361 101.052C129.285 99.5219 132.923 98.7402 135.337 99.1862C138.749 99.8144 150.915 109.199 152.772 112.417C153.496 113.674 154.663 119.5 154.187 120.167C153.583 121.02 151.774 121.107 150.857 120.584C148.899 119.471 149.566 117.524 148.414 116.292C147.459 115.275 143.246 114.076 141.58 113.06C140.597 112.46 139.704 111.564 138.739 110.859V110.878Z" fill="white"/>
<path d="M234.447 161.37C233.549 162.152 237.883 164.161 238.42 164.343C241.684 165.466 245.653 165.298 248.594 167.595C249.876 169.412 240.801 169.091 240.657 170.271C240.374 171.57 243.579 173.23 244.266 173.172C244.861 173.119 245.595 171.599 246.425 173.11C246.622 173.469 244.597 173.105 245.955 174.059C246.588 174.505 248.666 175.301 249.41 175.412C252.323 175.829 252.299 173.56 253.005 173.345C253.993 173.047 255.097 173.34 256.609 172.74C258.279 172.079 259.123 170.352 260.808 169.993C262.881 177.522 265.885 184.528 266.087 192.508L253.48 191.927L250.979 188.686C249.669 189.961 247.558 191.995 248.57 193.956C249.458 195.673 256.234 194.627 257.449 197.778C247.87 195.956 237.581 197.97 229.883 204.003C229.259 204.003 228.755 199.476 228.688 198.497C228.496 195.62 229.11 192.58 228.318 189.765C227.92 188.786 225.127 186.686 224.114 185.818C222.555 184.485 216.33 180.404 215.702 179.373C214.67 177.68 215.491 175.579 215.994 173.848C218.24 166.18 223.735 158.752 225.343 150.849C230.555 150.551 235.671 150.436 240.901 150.83C248.705 151.415 256.326 153.635 264.134 153.726C264.59 156.181 264.772 158.613 264.633 161.121C264.58 162.099 264.057 166.588 263.443 166.621C261.897 165.633 260.03 165.125 258.293 164.588C255.788 163.811 248.767 161.361 246.66 161.361H234.432L234.447 161.37Z" fill="white"/>
<path d="M201.847 193.951C201.3 198.373 201.722 203.48 202.466 207.94C204.304 218.989 209.813 224.326 218.384 230.839C219.584 231.75 225.996 235.279 226.293 235.874C222.67 238.406 219.325 241.384 216.465 244.727L204.242 228.925C205.902 232.162 208.081 251.109 209.703 252.452C211.421 253.867 217.477 250.798 219.263 251.095C220.822 251.354 223.02 254.749 225.093 252.884C225.439 252.572 226.84 248.601 227.723 249.532C226.327 258.14 222.608 265.856 218.61 273.481C218.135 273.845 212.957 265.127 212.304 264.22C202.538 250.702 187.45 237.974 180.813 222.868C179.762 220.48 177.52 215.402 177.972 212.994C178.456 210.395 181.609 202.943 182.785 200.056C184.148 196.709 185.64 193.443 187.45 190.316L188.088 190.177C192.426 192.105 197.091 193.529 201.847 193.951Z" fill="white"/>
<path d="M190.473 160.55C193.54 158.589 202.039 160.186 203.968 163.801C205.571 166.808 207.27 180.754 206.535 184.029C206.31 185.036 205.067 186.499 204.117 186.882C198.977 188.949 192.825 184.561 190.559 180.078C188.597 176.198 186.327 163.207 190.473 160.555V160.55Z" fill="white"/>
<path d="M89.8946 213.599C98.3313 231.419 93.7146 254.557 78.372 267.232C77.4602 267.985 71.3798 272.526 72.4644 268.522C72.57 268.129 76.8076 263.271 77.5802 262.125C83.6558 253.08 89.3187 238.204 88.69 227.247C88.3973 222.187 85.3499 217.699 89.8946 213.599Z" fill="white"/>
<path d="M229.173 280.19L222.204 298.854L212.395 320.424C214.838 308.853 215.558 295.545 223.217 285.973L229.168 280.19H229.173Z" fill="white"/>
<path d="M247.395 213.594C247.006 213.949 251.224 222.125 248.599 223.631C243.229 221.219 240.287 220.706 241.285 213.958C242.312 207.005 246.521 208.429 251.555 210.63C260.438 214.514 251.949 214.476 247.395 213.594Z" fill="white"/>
<path d="M185.108 154.153C183.284 150.182 191.735 149.621 194.567 149.065C200.23 147.952 205.988 147.42 211.699 146.638L212.424 149.626L185.108 154.148V154.153Z" fill="white"/>
<path d="M148.15 146.039C148.102 145.219 148.107 144.418 148.366 143.622C148.971 141.804 153.904 133.666 155.315 132.362C155.594 132.103 157.134 131.067 157.249 131.187C158.343 134.414 159.481 135.115 157.657 138.539C156.789 140.169 150.022 147.914 148.145 146.039H148.15Z" fill="white"/>
<path d="M293.893 358.765C295.179 360.295 289.175 360.275 288.599 360.405C285.888 361.019 280.681 364.174 278.795 364.069C278.037 364.025 277.585 363.978 277.125 363.306C281.334 358.933 288.057 355.211 293.893 358.765Z" fill="white"/>
<path d="M200.522 178.514C200.585 178.644 201.141 178.639 201.199 178.744C202.792 181.603 195.253 180.303 196.165 177.047C196.697 175.143 201.612 173.982 195.843 171.556C195.133 171.575 194.25 174.016 193.458 172.875C192.465 169.767 191.447 165.044 195.862 165.168C200.196 165.288 201.64 170.415 201.381 174.088C201.305 175.167 200.35 178.14 200.522 178.514Z" fill="black"/>
</g>
<defs>
<clipPath id="clip0_11_44">
<rect width="299" height="340" fill="white" transform="translate(10 36)"/>
</clipPath>
</defs>
</svg>
