<svg width="906" height="1012" viewBox="0 0 906 1012" fill="none" xmlns="http://www.w3.org/2000/svg">
<path d="M905.193 0V1012H0V0H905.193ZM85.4459 926.554H819.747V85.4459H85.4459V926.554Z" fill="currentColor"/>
<g clip-path="url(#clip0_9_46)">
<path d="M243.239 1003.99C244.931 986.818 247.404 969.467 248.416 952.231C250.966 908.412 251.992 856.309 244.124 813.143C242.868 806.241 239.152 786.854 235.871 781.732C234.244 779.21 232.629 778.57 230.348 777.02C223.262 772.206 192.648 753.164 186.292 753.152C181.602 753.139 175.759 755.431 170.915 755.789C152.206 757.172 131.678 750.258 120.58 734.495C117.018 729.437 108.983 708.987 106.959 707.169C101.871 702.61 91.7994 700.805 85.751 697.655C32.5843 670.009 14.8364 640.839 34.5449 581.142C64.6842 489.906 153.18 438.558 220.827 378.387C257.348 345.901 277.633 292.35 319.472 260.76C343.332 242.744 363.323 249.005 387.106 263.104L428.804 216.775C428.138 215.302 426.754 214.496 425.664 213.433C414.093 202.216 389.874 190.704 380.853 180.178C374.817 173.136 375.035 163.135 378.751 154.965C381.968 147.91 416.297 108.509 423.268 102.234C445.655 82.0663 474.397 117.28 494.144 127.114C498.078 129.598 501.923 125.309 504.844 125.424C509.035 125.591 546.094 150.752 550.54 155.157C558.306 162.853 552.834 166.426 554.948 169.883C556.781 172.867 578.783 186.261 583.819 190.986C595.032 201.511 600.35 215.495 593.712 230.323C590.457 237.596 561.292 270.172 554.385 275.46C525.488 297.626 499.398 261.823 475.628 249.159C471.975 249.133 433.814 292.542 427.971 298.433C433.289 308.779 440.811 325.067 430.214 334.312L430.188 336.169C441.477 340.958 442.695 367.913 437.159 377.068C434.224 381.909 419.373 398.632 414.849 402.102C400.061 413.46 388.144 409.337 371.332 407.16C360.901 416.367 352.956 433.359 340.154 438.763C331.62 442.374 323.547 442.976 314.346 442.348C310.771 442.105 305.479 439.749 302.711 439.915C299.289 440.12 284.963 459.597 281.913 463.707C268.215 482.172 257.963 500.483 249.07 521.727C247.596 525.248 239.382 544.289 240.779 545.915C249.057 547.58 256.784 552.446 264.985 554.341C284.899 558.976 316.191 552.279 338.693 553.598C362.233 554.981 382.685 564.239 406.123 558.4C416.72 555.762 444.617 543.841 450.755 535.197C452.37 532.918 451.549 529.986 453.138 527.335C455.381 523.57 461.711 523.699 465.312 519.025C468.913 514.351 470.335 506.847 473.693 501.815C458.546 497.333 453.356 476.371 454.663 462.324C455.227 456.293 459.123 447.829 459.225 442.758C459.289 439.339 456.547 435.754 456.086 432.45C447.423 371.229 477.358 328.179 533.561 307.063C598.428 282.695 686.436 298.74 709.579 371.665C727.904 379.732 766.257 398.171 750.021 423.589C744.69 431.925 732.44 437.47 723.982 430.849L722.688 432.079C719.754 440.709 718.985 454.5 714.205 462.03C713.27 463.515 710.707 463.861 710.463 464.962C709.618 468.816 722.073 499.177 723.982 506.296C726.814 516.861 730.069 521.906 719.139 528.308C712.168 532.38 706.401 530.6 700.366 533.776C701.596 536.516 703.377 540.14 703.838 543.047C705.402 553.035 697.277 566.339 696.637 578.722C695.496 600.593 705.786 622.22 683.592 637.317C669.329 647.024 655.733 642.26 640.612 640.762C639.19 640.621 636.012 639.584 636.307 641.863C646.469 649.764 658.142 651.621 669.534 656.627C706.337 672.826 747.958 698.717 765.219 736.262C785.184 779.722 788.003 834.425 794.026 881.458C795.281 887.182 810.723 895.646 814.336 904.661C820.795 920.744 828.483 972.322 823.563 988.265C822.371 992.119 816.464 1003.9 812.325 1003.9H687.513C689.768 988.93 697.418 975.613 701.967 961.412C715.115 920.244 725.238 868.538 728.468 825.423C728.57 824.027 729.031 819.687 727.84 819.674C719.075 851.622 710.425 883.648 700.66 915.327C693.177 939.618 684.873 968.327 676.057 991.799C674.57 995.768 672.533 1000.34 670.239 1003.9H243.239V1003.99Z" fill="currentColor"/>
<path d="M370.46 296.064C369.665 295.488 369.37 293.811 367.845 292.991C365.18 291.557 354.301 288.727 354.775 294.412C359.619 304.336 368.627 309.407 375.624 318.422C379.686 323.659 392.936 342.611 392.603 348.193C392.27 353.776 386.542 361.959 380.237 358.578L336.527 312.071L328.3 315.72C327.019 317.73 330.453 321.226 331.606 322.737C342.883 337.45 359.068 351.267 368.255 367.977C375.483 381.102 365.923 395.956 354.019 383.484C346.279 365.852 325.955 357.618 313.641 343.161C312.077 341.97 310.629 343.212 309.694 344.48C304.863 351.075 327.711 369.463 332.222 374.546C339.333 382.562 351.879 394.906 347.24 406.226C346.164 408.838 333.554 422.783 330.863 423.205C319.792 424.96 328.275 412.116 327.698 407.314C326.34 396.251 311.834 389.669 304.056 383.51C301.249 381.282 298.955 374.866 293.33 376.019C290.677 381.423 286.269 385.802 283.514 391.142C281.874 394.33 276.646 406.072 275.838 409.069C274.429 414.331 277.44 418.544 275.915 421.848C272.865 428.404 256.668 446.6 251.158 454.744C217.7 504.248 197.735 570.296 161.278 613.104C158.164 616.753 145.798 627.215 144.684 629.789C143.671 632.132 147.554 632.567 148.912 632.529C168.582 631.927 190.969 612.118 206.103 600.99C202.822 627.266 190.444 653.375 168.108 668.549C152.923 678.857 143.927 681.342 125.744 676.821C110.649 673.069 81.906 656.846 69.8093 647.011C48.5246 629.712 62.9792 587.967 72.7566 566.865C105.343 496.565 165.635 455.179 222.082 406.508C249.902 382.524 256.156 369.194 276.761 340.895C284.206 330.676 315.986 287.613 323.995 283.195C327.493 281.274 332.632 281.735 333.9 280.929C334.823 280.34 336.681 272.516 340.077 269.827C345.215 265.742 354.929 263.655 361.374 264.846C370.485 266.523 402.97 291.583 407.929 300.175C409.864 303.53 412.978 319.088 411.709 320.868C410.094 323.147 405.263 323.377 402.816 321.982C397.588 319.011 399.369 313.812 396.293 310.521C393.743 307.806 382.492 304.605 378.046 301.891C375.419 300.29 373.035 297.895 370.46 296.013V296.064Z" fill="currentColor"/>
<path d="M626.016 430.888C623.62 432.975 635.191 438.341 636.626 438.827C645.34 441.824 655.938 441.376 663.793 447.509C667.214 452.362 642.982 451.504 642.598 454.654C641.842 458.125 650.402 462.555 652.234 462.401C653.823 462.261 655.784 458.201 658.001 462.235C658.526 463.195 653.118 462.222 656.745 464.77C658.436 465.961 663.985 468.087 665.971 468.381C673.75 469.495 673.685 463.439 675.569 462.862C678.209 462.068 681.156 462.85 685.193 461.249C689.652 459.482 691.907 454.872 696.405 453.912C701.941 474.016 709.963 492.724 710.501 514.031L676.838 512.482L670.162 503.826C666.663 507.232 661.025 512.661 663.729 517.898C666.099 522.483 684.193 519.691 687.435 528.104C661.858 523.238 634.384 528.616 613.83 544.725C612.164 544.725 610.818 532.637 610.639 530.025C610.126 522.342 611.767 514.223 609.652 506.707C608.589 504.095 601.131 498.486 598.427 496.168C594.262 492.608 577.642 481.711 575.963 478.958C573.208 474.438 575.399 468.83 576.745 464.207C582.742 443.732 597.415 423.897 601.707 402.794C615.624 402 629.284 401.693 643.251 402.743C664.088 404.305 684.437 410.234 705.286 410.477C706.503 417.033 706.99 423.525 706.618 430.222C706.477 432.835 705.081 444.82 703.44 444.91C699.314 442.272 694.329 440.915 689.691 439.48C683.002 437.406 664.254 430.863 658.629 430.863H625.978L626.016 430.888Z" fill="currentColor"/>
<path d="M538.968 517.886C537.507 529.692 538.635 543.329 540.621 555.238C545.529 584.741 560.24 598.993 583.126 616.382C586.33 618.815 603.45 628.239 604.244 629.827C594.57 636.588 585.638 644.54 578.001 653.465L545.362 611.272C549.796 619.916 555.614 670.508 559.945 674.094C564.533 677.871 580.704 669.676 585.471 670.47C589.636 671.162 595.505 680.228 601.041 675.246C601.963 674.414 605.705 663.811 608.063 666.296C604.334 689.281 594.403 709.884 583.729 730.244C582.46 731.217 568.633 707.938 566.891 705.517C540.813 669.42 500.525 635.436 482.803 595.1C479.996 588.723 474.012 575.162 475.217 568.734C476.511 561.794 484.93 541.895 488.069 534.186C491.709 525.248 495.694 516.528 500.525 508.179L502.229 507.808C513.813 512.956 526.269 516.759 538.968 517.886Z" fill="currentColor"/>
<path d="M508.598 428.699C516.787 423.461 539.481 427.725 544.632 437.38C548.912 445.409 553.448 482.646 551.488 491.392C550.886 494.081 547.567 497.986 545.029 499.011C531.305 504.53 514.877 492.813 508.829 480.841C503.588 470.481 497.527 435.793 508.598 428.711V428.699Z" fill="currentColor"/>
<path d="M240.035 570.348C262.563 617.931 250.235 679.715 209.268 713.559C206.833 715.569 190.597 727.696 193.493 717.004C193.775 715.953 205.09 702.982 207.153 699.922C223.376 675.771 238.497 636.05 236.819 606.791C236.037 593.281 227.9 581.296 240.035 570.348Z" fill="currentColor"/>
<path d="M611.933 748.158L593.327 797.995L567.134 855.592C573.657 824.694 575.579 789.16 596.031 763.601L611.92 748.158H611.933Z" fill="currentColor"/>
<path d="M660.589 570.335C659.551 571.282 670.815 593.115 663.806 597.136C649.466 590.695 641.611 589.325 644.276 571.308C647.019 552.741 658.257 556.544 671.699 562.421C695.419 572.793 672.75 572.691 660.589 570.335Z" fill="currentColor"/>
<path d="M494.272 411.617C489.402 401.014 511.968 399.516 519.529 398.031C534.65 395.06 550.027 393.638 565.276 391.551L567.211 399.529L494.272 411.604V411.617Z" fill="currentColor"/>
<path d="M395.588 389.951C395.46 387.761 395.473 385.623 396.165 383.497C397.78 378.644 410.953 356.914 414.72 353.431C415.463 352.739 419.577 349.973 419.884 350.293C422.806 358.911 425.843 360.781 420.974 369.924C418.654 374.277 400.586 394.957 395.576 389.951H395.588Z" fill="currentColor"/>
<path d="M784.747 957.968C788.182 962.053 772.151 962.002 770.613 962.348C763.373 963.987 749.469 972.412 744.433 972.131C742.409 972.015 741.204 971.887 739.974 970.095C751.212 958.417 769.165 948.48 784.747 957.968Z" fill="currentColor"/>
<path d="M535.431 476.666C535.598 477.012 537.084 476.999 537.238 477.281C541.493 484.913 521.361 481.442 523.796 472.748C525.218 467.664 538.34 464.565 522.937 458.086C521.041 458.137 518.683 464.655 516.569 461.607C513.916 453.31 511.199 440.697 522.989 441.03C534.56 441.35 538.417 455.038 537.725 464.847C537.52 467.728 534.97 475.667 535.431 476.666Z" fill="currentColor"/>
</g>
<defs>
<clipPath id="clip0_9_46">
<rect width="798.385" height="907.863" fill="currentColor" transform="translate(26.7018 96.1267)"/>
</clipPath>
</defs>
</svg>
