<svg width="958" height="395" viewBox="0 0 958 395" fill="none" xmlns="http://www.w3.org/2000/svg">
<path d="M5 202.797V262.161C5 287.221 19.5805 307.658 37.6535 307.658H919.387C937.372 307.658 952.04 287.343 952.04 262.161V202.797" stroke="black" stroke-width="10" stroke-miterlimit="10" stroke-linecap="round"/>
<path d="M953 109.86V50.4962C953 25.4367 938.419 5 920.347 5H38.7008C20.7152 5 6.04736 25.3151 6.04736 50.4962V109.86" stroke="black" stroke-width="10" stroke-miterlimit="10" stroke-linecap="round"/>
<path d="M554.29 274.586H418.371C370.346 274.586 336.819 254.877 317.79 215.458C309.635 199.226 304.651 179.517 302.839 156.329C302.839 142.416 296.043 135.46 282.451 135.46H146.532C132.94 135.46 126.144 142.416 126.144 156.329C126.144 170.242 132.94 177.198 146.532 177.198H262.063C273.39 177.198 282.225 182.067 288.568 191.806C294.91 201.545 298.082 212.907 298.082 225.892C298.082 238.877 294.91 250.239 288.568 259.978C282.225 269.717 273.39 274.586 262.063 274.586H146.532C123.878 272.731 104.623 267.862 88.7658 259.978C50.2553 240.036 31 205.487 31 156.329C31 107.171 50.2553 72.6215 88.7658 52.6801C104.623 44.7963 123.878 39.9269 146.532 38.0719H282.451C330.476 38.0719 364.229 57.7814 383.711 97.2004C391.413 113.432 396.17 133.141 397.983 156.329C397.983 170.242 404.779 177.198 418.371 177.198H554.29C567.882 177.198 574.678 170.242 574.678 156.329C574.678 142.416 567.882 135.46 554.29 135.46H438.759C427.432 135.46 418.597 130.591 412.254 120.852C406.364 111.113 403.42 99.7511 403.42 86.766C403.42 73.7809 406.364 62.4189 412.254 52.6801C418.597 42.9413 427.432 38.0719 438.759 38.0719H554.29C576.944 39.9269 596.199 44.7963 612.056 52.6801C650.567 72.6215 669.822 107.171 669.822 156.329C669.822 205.487 650.567 240.036 612.056 259.978C596.199 267.862 576.944 272.731 554.29 274.586Z" fill="black"/>
<path d="M706.49 274.586C683.837 272.731 664.581 267.862 648.724 259.978C610.214 240.036 590.958 205.487 590.958 156.329C590.958 107.171 610.214 72.6215 648.724 52.6801C664.581 44.7963 683.837 39.9269 706.49 38.0719H889.981C901.308 38.0719 910.143 42.9413 916.486 52.6801C922.828 62.4189 926 73.7809 926 86.766C926 99.7511 922.828 111.113 916.486 120.852C910.143 130.591 901.308 135.46 889.981 135.46H706.49C692.898 135.46 686.102 142.416 686.102 156.329C686.102 170.242 692.898 177.198 706.49 177.198H889.981C901.308 177.198 910.143 182.067 916.486 191.806C922.828 201.545 926 212.907 926 225.892C926 238.877 922.828 250.239 916.486 259.978C910.143 269.717 901.308 274.586 889.981 274.586H706.49Z" fill="black"/>
<path d="M32.88 350.733C43.5467 350.733 48.88 355.789 48.88 365.901C48.88 370.978 47.472 374.904 44.656 377.677C42.0533 380.237 37.9787 381.517 32.432 381.517C26.9707 381.517 22.9387 380.28 20.336 377.805C17.7333 375.288 16.432 371.384 16.432 366.093C16.432 355.853 21.9147 350.733 32.88 350.733ZM32.688 357.709C30.8107 357.709 29.3173 358.456 28.208 359.949C27.1413 361.442 26.608 363.469 26.608 366.029C26.608 368.674 27.1413 370.765 28.208 372.301C29.3173 373.794 30.8107 374.541 32.688 374.541C34.5227 374.541 35.9733 373.794 37.04 372.301C38.1493 370.765 38.704 368.717 38.704 366.157C38.704 363.554 38.1493 361.506 37.04 360.013C35.9733 358.477 34.5227 357.709 32.688 357.709ZM53.8725 351.501H63.1525V356.109C64.4752 354.146 65.7552 352.76 66.9925 351.949C68.2298 351.138 69.7018 350.733 71.4085 350.733C72.9872 350.733 74.8005 351.288 76.8485 352.397L73.7125 361.293C72.3898 360.226 71.0245 359.693 69.6165 359.693C67.3552 359.693 65.7765 360.653 64.8805 362.573C63.8992 364.664 63.4085 366.818 63.4085 369.037V380.749H53.8725V351.501ZM108.868 335.949V380.749H99.3315V377.869C96.6008 380.301 93.5502 381.517 90.1795 381.517C86.2115 381.517 83.0328 380.152 80.6435 377.421C78.2968 374.648 77.1235 370.936 77.1235 366.285C77.1235 361.122 78.4888 357.197 81.2195 354.509C83.7795 351.992 86.9795 350.733 90.8195 350.733C94.3608 350.733 97.1982 351.949 99.3315 354.381V335.949H108.868ZM93.3795 357.773C91.5448 357.773 90.0728 358.52 88.9635 360.013C87.8542 361.506 87.2995 363.512 87.2995 366.029C87.2995 368.674 87.8328 370.744 88.8995 372.237C89.9662 373.73 91.4382 374.477 93.3155 374.477C97.4115 374.477 99.4595 371.704 99.4595 366.157C99.4595 363.554 98.9048 361.506 97.7955 360.013C96.7288 358.52 95.2568 357.773 93.3795 357.773ZM124.724 351.501V380.749H115.188V351.501H124.724ZM119.732 336.717C121.225 336.717 122.462 337.229 123.444 338.253C124.468 339.234 124.98 340.472 124.98 341.965C124.98 343.501 124.468 344.781 123.444 345.805C122.462 346.786 121.225 347.277 119.732 347.277C118.196 347.277 116.916 346.786 115.892 345.805C114.91 344.781 114.42 343.48 114.42 341.901C114.42 340.45 114.932 339.234 115.956 338.253C116.98 337.229 118.238 336.717 119.732 336.717ZM140.631 351.501V355.277C142.21 353.57 143.703 352.397 145.111 351.757C146.519 351.074 148.226 350.733 150.231 350.733C154.199 350.733 157.1 351.992 158.935 354.509C160.13 356.13 160.727 358.669 160.727 362.125V380.749H151.191V365.389C151.191 362.914 150.828 361.186 150.103 360.205C149.42 359.181 148.204 358.669 146.455 358.669C144.151 358.669 142.53 359.416 141.591 360.909C140.951 361.89 140.631 363.576 140.631 365.965V380.749H131.095V351.501H140.631ZM197.465 351.501V380.749H187.929V377.613C186.734 378.936 185.54 379.853 184.345 380.365C182.596 381.133 180.74 381.517 178.777 381.517C175.236 381.517 172.27 380.344 169.881 377.997C167.108 375.309 165.721 371.405 165.721 366.285C165.721 361.122 167.086 357.197 169.817 354.509C172.377 351.992 175.598 350.733 179.481 350.733C183.108 350.733 185.924 352.141 187.929 354.957V351.501H197.465ZM181.977 357.773C180.142 357.773 178.67 358.52 177.561 360.013C176.452 361.506 175.897 363.512 175.897 366.029C175.897 368.674 176.43 370.744 177.497 372.237C178.564 373.73 180.036 374.477 181.913 374.477C186.009 374.477 188.057 371.704 188.057 366.157C188.057 363.554 187.502 361.506 186.393 360.013C185.326 358.52 183.854 357.773 181.977 357.773ZM203.785 351.501H213.065V356.109C214.388 354.146 215.668 352.76 216.905 351.949C218.142 351.138 219.614 350.733 221.321 350.733C222.9 350.733 224.713 351.288 226.761 352.397L223.625 361.293C222.302 360.226 220.937 359.693 219.529 359.693C217.268 359.693 215.689 360.653 214.793 362.573C213.812 364.664 213.321 366.818 213.321 369.037V380.749H203.785V351.501ZM256.476 351.501L244.38 379.853C241.82 385.912 239.537 389.901 237.532 391.821C235.527 393.784 232.711 394.765 229.084 394.765C228.06 394.765 226.588 394.68 224.668 394.509L222.748 386.637C224.497 386.978 225.863 387.149 226.844 387.149C230.172 387.149 232.433 385.826 233.628 383.181L234.972 380.173L224.412 351.501H234.908L240.604 369.165L247.26 351.501H256.476ZM300.853 360.013L292.021 362.701C291.893 358.776 290.421 356.813 287.605 356.813C285.685 356.813 284.192 357.666 283.125 359.373C282.059 361.08 281.525 363.469 281.525 366.541C281.525 372.386 283.381 375.309 287.093 375.309C288.459 375.309 289.483 374.904 290.165 374.093C290.891 373.24 291.467 371.768 291.893 369.677L301.045 372.109C300.064 375.352 298.528 377.656 296.437 379.021C293.877 380.685 290.549 381.517 286.453 381.517C281.845 381.517 278.304 380.365 275.829 378.061C272.843 375.288 271.349 371.341 271.349 366.221C271.349 361.272 272.8 357.389 275.701 354.573C278.304 352.013 282.123 350.733 287.157 350.733C291.68 350.733 295.115 351.736 297.461 353.741C299.125 355.149 300.256 357.24 300.853 360.013ZM319.018 350.733C329.684 350.733 335.018 355.789 335.018 365.901C335.018 370.978 333.61 374.904 330.794 377.677C328.191 380.237 324.116 381.517 318.57 381.517C313.108 381.517 309.076 380.28 306.474 377.805C303.871 375.288 302.57 371.384 302.57 366.093C302.57 355.853 308.052 350.733 319.018 350.733ZM318.826 357.709C316.948 357.709 315.455 358.456 314.346 359.949C313.279 361.442 312.746 363.469 312.746 366.029C312.746 368.674 313.279 370.765 314.346 372.301C315.455 373.794 316.948 374.541 318.826 374.541C320.66 374.541 322.111 373.794 323.178 372.301C324.287 370.765 324.842 368.717 324.842 366.157C324.842 363.554 324.287 361.506 323.178 360.013C322.111 358.477 320.66 357.709 318.826 357.709ZM340.01 351.501H349.546V354.765C352.106 352.077 355.093 350.733 358.506 350.733C360.597 350.733 362.303 351.074 363.626 351.757C364.991 352.44 366.25 353.613 367.402 355.277C370.303 352.248 373.631 350.733 377.386 350.733C380.671 350.733 383.21 351.672 385.002 353.549C386.837 355.384 387.754 358.008 387.754 361.421V380.749H378.218V364.749C378.218 360.738 376.703 358.733 373.674 358.733C370.389 358.733 368.746 360.93 368.746 365.325V380.749H359.21V364.685C359.21 360.674 357.695 358.669 354.666 358.669C351.253 358.669 349.546 361.101 349.546 365.965V380.749H340.01V351.501ZM403.704 351.501V354.765C406.178 352.077 409.186 350.733 412.728 350.733C416.781 350.733 420.002 352.12 422.392 354.893C424.824 357.624 426.04 361.293 426.04 365.901C426.04 370.594 424.802 374.37 422.328 377.229C419.896 380.088 416.674 381.517 412.664 381.517C409.464 381.517 406.477 380.28 403.704 377.805V394.573H394.168V351.501H403.704ZM409.784 357.773C407.906 357.773 406.392 358.541 405.24 360.077C404.13 361.613 403.576 363.64 403.576 366.157C403.576 368.717 404.13 370.765 405.24 372.301C406.392 373.794 407.906 374.541 409.784 374.541C411.618 374.541 413.09 373.794 414.2 372.301C415.309 370.765 415.864 368.738 415.864 366.221C415.864 363.618 415.309 361.57 414.2 360.077C413.133 358.541 411.661 357.773 409.784 357.773ZM461.412 351.501V380.749H451.876V377.613C450.682 378.936 449.487 379.853 448.292 380.365C446.543 381.133 444.687 381.517 442.724 381.517C439.183 381.517 436.218 380.344 433.828 377.997C431.055 375.309 429.668 371.405 429.668 366.285C429.668 361.122 431.034 357.197 433.764 354.509C436.324 351.992 439.546 350.733 443.428 350.733C447.055 350.733 449.871 352.141 451.876 354.957V351.501H461.412ZM445.924 357.773C444.09 357.773 442.618 358.52 441.508 360.013C440.399 361.506 439.844 363.512 439.844 366.029C439.844 368.674 440.378 370.744 441.444 372.237C442.511 373.73 443.983 374.477 445.86 374.477C449.956 374.477 452.004 371.704 452.004 366.157C452.004 363.554 451.45 361.506 450.34 360.013C449.274 358.52 447.802 357.773 445.924 357.773ZM477.268 351.501V355.277C478.847 353.57 480.34 352.397 481.748 351.757C483.156 351.074 484.863 350.733 486.868 350.733C490.836 350.733 493.738 351.992 495.572 354.509C496.767 356.13 497.364 358.669 497.364 362.125V380.749H487.828V365.389C487.828 362.914 487.466 361.186 486.74 360.205C486.058 359.181 484.842 358.669 483.092 358.669C480.788 358.669 479.167 359.416 478.228 360.909C477.588 361.89 477.268 363.576 477.268 365.965V380.749H467.732V351.501H477.268ZM531.861 351.501L519.765 379.853C517.205 385.912 514.922 389.901 512.917 391.821C510.912 393.784 508.096 394.765 504.469 394.765C503.445 394.765 501.973 394.68 500.053 394.509L498.133 386.637C499.882 386.978 501.248 387.149 502.229 387.149C505.557 387.149 507.818 385.826 509.013 383.181L510.357 380.173L499.797 351.501H510.293L515.989 369.165L522.645 351.501H531.861Z" fill="black"/>
<path d="M552.392 361.91V350.246H553.976L554.144 351.782H554.192C554.496 351.238 554.848 350.798 555.248 350.462C555.648 350.126 556.184 349.958 556.856 349.958C557.432 349.958 557.904 350.126 558.272 350.462C558.64 350.798 558.904 351.302 559.064 351.974C559.4 351.35 559.768 350.862 560.168 350.51C560.584 350.142 561.128 349.958 561.8 349.958C562.616 349.958 563.248 350.27 563.696 350.894C564.16 351.502 564.392 352.39 564.392 353.558V361.91H562.424V353.702C562.424 352.342 562.008 351.662 561.176 351.662C560.776 351.662 560.44 351.814 560.168 352.118C559.912 352.406 559.624 352.854 559.304 353.462V361.91H557.48V353.702C557.48 353.03 557.384 352.526 557.192 352.19C557.016 351.838 556.712 351.662 556.28 351.662C555.88 351.662 555.528 351.814 555.224 352.118C554.936 352.406 554.648 352.854 554.36 353.462V361.91H552.392ZM572.015 362.198C571.295 362.198 570.631 362.07 570.023 361.814C569.415 361.542 568.935 361.158 568.583 360.662C568.231 360.166 568.055 359.574 568.055 358.886C568.055 357.574 568.711 356.582 570.023 355.91C571.335 355.222 573.495 354.758 576.503 354.518C576.487 353.99 576.375 353.502 576.167 353.054C575.975 352.606 575.655 352.254 575.207 351.998C574.759 351.726 574.159 351.59 573.407 351.59C572.911 351.59 572.415 351.662 571.919 351.806C571.439 351.934 570.975 352.11 570.527 352.334C570.095 352.542 569.695 352.758 569.327 352.982L568.559 351.638C568.943 351.382 569.407 351.126 569.951 350.87C570.511 350.598 571.111 350.382 571.751 350.222C572.391 350.046 573.055 349.958 573.743 349.958C574.815 349.958 575.695 350.158 576.383 350.558C577.087 350.958 577.607 351.518 577.943 352.238C578.295 352.942 578.471 353.782 578.471 354.758V361.91H576.863L576.695 360.326H576.623C575.983 360.838 575.263 361.278 574.463 361.646C573.663 362.014 572.847 362.198 572.015 362.198ZM572.543 360.614C573.215 360.614 573.879 360.462 574.535 360.158C575.191 359.854 575.847 359.43 576.503 358.886V355.814C574.839 355.958 573.527 356.158 572.567 356.414C571.623 356.67 570.951 356.998 570.551 357.398C570.167 357.782 569.975 358.23 569.975 358.742C569.975 359.174 570.095 359.534 570.335 359.822C570.575 360.094 570.887 360.294 571.271 360.422C571.671 360.55 572.095 360.614 572.543 360.614ZM587.725 362.198C586.205 362.198 584.981 361.67 584.053 360.614C583.125 359.542 582.661 358.038 582.661 356.102C582.661 354.838 582.909 353.75 583.405 352.838C583.917 351.91 584.573 351.198 585.373 350.702C586.189 350.206 587.053 349.958 587.965 349.958C588.653 349.958 589.277 350.094 589.837 350.366C590.413 350.622 590.949 350.99 591.445 351.47H591.517L591.421 349.31V344.822H593.389V361.91H591.757L591.589 360.374H591.517C591.053 360.87 590.485 361.302 589.813 361.67C589.157 362.022 588.461 362.198 587.725 362.198ZM588.133 360.542C588.709 360.542 589.269 360.398 589.813 360.11C590.357 359.806 590.893 359.366 591.421 358.79V352.982C590.893 352.486 590.373 352.134 589.861 351.926C589.365 351.718 588.861 351.614 588.349 351.614C587.677 351.614 587.061 351.806 586.501 352.19C585.957 352.558 585.517 353.078 585.181 353.75C584.861 354.406 584.701 355.182 584.701 356.078C584.701 357.47 585.005 358.566 585.613 359.366C586.221 360.15 587.061 360.542 588.133 360.542ZM604.252 362.198C603.084 362.198 602.02 361.958 601.06 361.478C600.116 360.998 599.364 360.302 598.804 359.39C598.244 358.462 597.964 357.35 597.964 356.054C597.964 354.79 598.244 353.702 598.804 352.79C599.364 351.878 600.092 351.182 600.988 350.702C601.9 350.206 602.876 349.958 603.916 349.958C605.036 349.958 605.988 350.19 606.772 350.654C607.572 351.102 608.18 351.734 608.596 352.55C609.028 353.366 609.244 354.326 609.244 355.43C609.244 355.654 609.236 355.87 609.22 356.078C609.204 356.286 609.18 356.47 609.148 356.63H599.284V355.094H607.972L607.468 355.646C607.468 354.27 607.148 353.238 606.508 352.55C605.884 351.862 605.036 351.518 603.964 351.518C603.244 351.518 602.572 351.694 601.948 352.046C601.34 352.398 600.852 352.91 600.484 353.582C600.116 354.254 599.932 355.078 599.932 356.054C599.932 357.062 600.132 357.902 600.532 358.574C600.932 359.246 601.476 359.758 602.164 360.11C602.852 360.446 603.628 360.614 604.492 360.614C605.196 360.614 605.828 360.518 606.388 360.326C606.964 360.118 607.516 359.846 608.044 359.51L608.764 360.806C608.188 361.19 607.524 361.518 606.772 361.79C606.036 362.062 605.196 362.198 604.252 362.198ZM634.233 362.198C633.657 362.198 633.041 362.062 632.385 361.79C631.745 361.502 631.153 361.11 630.609 360.614H630.537L630.369 361.91H628.785V344.822H630.753V349.478L630.681 351.734H630.753C631.281 351.19 631.889 350.758 632.577 350.438C633.281 350.118 633.977 349.958 634.665 349.958C635.721 349.958 636.609 350.206 637.329 350.702C638.049 351.182 638.593 351.87 638.961 352.766C639.329 353.646 639.513 354.686 639.513 355.886C639.513 357.214 639.265 358.35 638.769 359.294C638.289 360.238 637.649 360.958 636.849 361.454C636.049 361.95 635.177 362.198 634.233 362.198ZM633.921 360.542C634.593 360.542 635.193 360.358 635.721 359.99C636.265 359.622 636.689 359.094 636.993 358.406C637.313 357.702 637.473 356.87 637.473 355.91C637.473 355.062 637.361 354.318 637.137 353.678C636.913 353.022 636.561 352.518 636.081 352.166C635.601 351.798 634.969 351.614 634.185 351.614C633.657 351.614 633.097 351.758 632.505 352.046C631.929 352.318 631.345 352.758 630.753 353.366V359.174C631.313 359.67 631.873 360.022 632.433 360.23C633.009 360.438 633.505 360.542 633.921 360.542ZM644.808 366.926C644.552 366.926 644.28 366.902 643.992 366.854C643.72 366.806 643.48 366.75 643.272 366.686L643.68 365.126C643.84 365.174 644.008 365.214 644.184 365.246C644.376 365.278 644.56 365.294 644.736 365.294C645.552 365.294 646.216 365.054 646.728 364.574C647.24 364.11 647.64 363.518 647.928 362.798L648.288 361.934L642.84 350.246H644.832L647.688 356.702C647.912 357.214 648.144 357.766 648.384 358.358C648.64 358.934 648.888 359.51 649.128 360.086H649.224C649.432 359.526 649.64 358.958 649.848 358.382C650.072 357.79 650.28 357.23 650.472 356.702L653.016 350.246H654.888L649.752 362.87C649.464 363.638 649.104 364.326 648.672 364.934C648.24 365.558 647.704 366.046 647.064 366.398C646.44 366.75 645.688 366.926 644.808 366.926ZM674.117 361.91V344.822H676.085V349.478L675.965 352.238H676.037C676.629 351.598 677.277 351.062 677.981 350.63C678.685 350.182 679.493 349.958 680.405 349.958C681.781 349.958 682.797 350.358 683.453 351.158C684.109 351.958 684.437 353.126 684.437 354.662V361.91H682.469V354.926C682.469 353.822 682.261 353.006 681.845 352.478C681.429 351.934 680.741 351.662 679.781 351.662C679.093 351.662 678.477 351.838 677.933 352.19C677.389 352.542 676.773 353.07 676.085 353.774V361.91H674.117ZM692.9 362.198C691.508 362.198 690.484 361.798 689.828 360.998C689.172 360.198 688.844 359.03 688.844 357.494V350.246H690.836V357.23C690.836 358.334 691.036 359.158 691.436 359.702C691.852 360.23 692.548 360.494 693.524 360.494C694.196 360.494 694.804 360.326 695.348 359.99C695.908 359.638 696.508 359.086 697.148 358.334V350.246H699.116V361.91H697.508L697.34 359.87H697.244C696.652 360.542 696.004 361.102 695.3 361.55C694.596 361.982 693.796 362.198 692.9 362.198ZM703.498 361.91V350.246H705.082L705.25 351.782H705.298C705.602 351.238 705.954 350.798 706.354 350.462C706.754 350.126 707.29 349.958 707.962 349.958C708.538 349.958 709.01 350.126 709.378 350.462C709.746 350.798 710.01 351.302 710.17 351.974C710.506 351.35 710.874 350.862 711.274 350.51C711.69 350.142 712.234 349.958 712.906 349.958C713.722 349.958 714.354 350.27 714.802 350.894C715.266 351.502 715.498 352.39 715.498 353.558V361.91H713.53V353.702C713.53 352.342 713.114 351.662 712.282 351.662C711.882 351.662 711.546 351.814 711.274 352.118C711.018 352.406 710.73 352.854 710.41 353.462V361.91H708.586V353.702C708.586 353.03 708.49 352.526 708.298 352.19C708.122 351.838 707.818 351.662 707.386 351.662C706.986 351.662 706.634 351.814 706.33 352.118C706.042 352.406 705.754 352.854 705.466 353.462V361.91H703.498ZM723.121 362.198C722.401 362.198 721.737 362.07 721.129 361.814C720.521 361.542 720.041 361.158 719.689 360.662C719.337 360.166 719.161 359.574 719.161 358.886C719.161 357.574 719.817 356.582 721.129 355.91C722.441 355.222 724.601 354.758 727.609 354.518C727.593 353.99 727.481 353.502 727.273 353.054C727.081 352.606 726.761 352.254 726.313 351.998C725.865 351.726 725.265 351.59 724.513 351.59C724.017 351.59 723.521 351.662 723.025 351.806C722.545 351.934 722.081 352.11 721.633 352.334C721.201 352.542 720.801 352.758 720.433 352.982L719.665 351.638C720.049 351.382 720.513 351.126 721.057 350.87C721.617 350.598 722.217 350.382 722.857 350.222C723.497 350.046 724.161 349.958 724.849 349.958C725.921 349.958 726.801 350.158 727.489 350.558C728.193 350.958 728.713 351.518 729.049 352.238C729.401 352.942 729.577 353.782 729.577 354.758V361.91H727.969L727.801 360.326H727.729C727.089 360.838 726.369 361.278 725.569 361.646C724.769 362.014 723.953 362.198 723.121 362.198ZM723.649 360.614C724.321 360.614 724.985 360.462 725.641 360.158C726.297 359.854 726.953 359.43 727.609 358.886V355.814C725.945 355.958 724.633 356.158 723.673 356.414C722.729 356.67 722.057 356.998 721.657 357.398C721.273 357.782 721.081 358.23 721.081 358.742C721.081 359.174 721.201 359.534 721.441 359.822C721.681 360.094 721.993 360.294 722.377 360.422C722.777 360.55 723.201 360.614 723.649 360.614ZM734.559 361.91V350.246H736.191L736.359 352.238H736.455C737.063 351.582 737.719 351.038 738.423 350.606C739.127 350.174 739.935 349.958 740.847 349.958C742.223 349.958 743.239 350.358 743.895 351.158C744.551 351.958 744.879 353.126 744.879 354.662V361.91H742.911V354.926C742.911 353.822 742.703 353.006 742.287 352.478C741.872 351.934 741.184 351.662 740.224 351.662C739.535 351.662 738.919 351.838 738.375 352.19C737.831 352.542 737.215 353.07 736.527 353.774V361.91H734.559ZM754.878 362.198C753.742 362.198 752.678 362.014 751.686 361.646C750.694 361.278 749.846 360.854 749.142 360.374L750.054 359.078C750.726 359.558 751.47 359.942 752.286 360.23C753.102 360.518 754.046 360.662 755.118 360.662C756.11 360.662 756.846 360.478 757.326 360.11C757.822 359.742 758.07 359.318 758.07 358.838C758.07 358.614 758.022 358.406 757.926 358.214C757.846 358.022 757.678 357.838 757.422 357.662C757.182 357.486 756.822 357.318 756.342 357.158C755.862 356.998 755.222 356.838 754.422 356.678C752.902 356.358 751.758 355.926 750.99 355.382C750.238 354.838 749.862 354.134 749.862 353.27C749.862 352.326 750.27 351.542 751.086 350.918C751.902 350.278 753.11 349.958 754.71 349.958C755.606 349.958 756.47 350.11 757.302 350.414C758.134 350.702 758.838 351.046 759.414 351.446L758.454 352.718C757.926 352.334 757.326 352.038 756.654 351.83C755.982 351.606 755.278 351.494 754.542 351.494C753.87 351.494 753.334 351.574 752.934 351.734C752.55 351.878 752.27 352.078 752.094 352.334C751.934 352.59 751.854 352.87 751.854 353.174C751.854 353.67 752.118 354.062 752.646 354.35C753.19 354.622 754.054 354.878 755.238 355.118C756.534 355.39 757.526 355.694 758.214 356.03C758.918 356.366 759.398 356.75 759.654 357.182C759.926 357.614 760.062 358.126 760.062 358.718C760.062 359.358 759.862 359.942 759.462 360.47C759.062 360.982 758.478 361.398 757.71 361.718C756.942 362.038 755.998 362.198 754.878 362.198ZM556.808 383.91V371.262C556.808 370.318 556.976 369.494 557.312 368.79C557.664 368.07 558.184 367.518 558.872 367.134C559.56 366.734 560.44 366.534 561.512 366.534C562.088 366.534 562.648 366.59 563.192 366.702C563.752 366.798 564.312 366.966 564.872 367.206L564.416 368.694C563.936 368.47 563.488 368.326 563.072 368.262C562.672 368.182 562.216 368.142 561.704 368.142C560.664 368.142 559.912 368.414 559.448 368.958C558.984 369.502 558.752 370.246 558.752 371.19V383.91H556.808ZM553.472 373.854V372.366L556.88 372.246H563.648V373.854H553.472ZM573.311 384.198C572.287 384.198 571.335 383.958 570.455 383.478C569.591 382.998 568.887 382.302 568.343 381.39C567.815 380.478 567.551 379.382 567.551 378.102C567.551 376.79 567.815 375.678 568.343 374.766C568.887 373.854 569.591 373.158 570.455 372.678C571.335 372.198 572.287 371.958 573.311 371.958C574.335 371.958 575.279 372.198 576.143 372.678C577.023 373.158 577.727 373.854 578.255 374.766C578.799 375.678 579.071 376.79 579.071 378.102C579.071 379.382 578.799 380.478 578.255 381.39C577.727 382.302 577.023 382.998 576.143 383.478C575.279 383.958 574.335 384.198 573.311 384.198ZM573.311 382.566C574.063 382.566 574.719 382.382 575.279 382.014C575.839 381.63 576.271 381.102 576.575 380.43C576.879 379.758 577.031 378.982 577.031 378.102C577.031 377.206 576.879 376.422 576.575 375.75C576.271 375.062 575.839 374.534 575.279 374.166C574.719 373.782 574.063 373.59 573.311 373.59C572.559 373.59 571.903 373.782 571.343 374.166C570.799 374.534 570.367 375.062 570.047 375.75C569.743 376.422 569.591 377.206 569.591 378.102C569.591 378.982 569.743 379.758 570.047 380.43C570.367 381.102 570.799 381.63 571.343 382.014C571.903 382.382 572.559 382.566 573.311 382.566ZM584.725 383.91V372.246H586.357L586.525 375.006H586.597C587.205 374.062 587.957 373.318 588.853 372.774C589.749 372.23 590.733 371.958 591.805 371.958C592.237 371.958 592.637 371.998 593.005 372.078C593.389 372.142 593.757 372.262 594.109 372.438L593.653 374.142C593.253 373.998 592.909 373.894 592.621 373.83C592.333 373.766 591.957 373.734 591.493 373.734C590.613 373.734 589.765 373.99 588.949 374.502C588.149 374.998 587.397 375.854 586.693 377.07V383.91H584.725ZM613.675 383.91V366.822H615.643V371.478L615.523 374.238H615.595C616.187 373.598 616.835 373.062 617.539 372.63C618.243 372.182 619.051 371.958 619.963 371.958C621.339 371.958 622.355 372.358 623.011 373.158C623.667 373.958 623.995 375.126 623.995 376.662V383.91H622.027V376.926C622.027 375.822 621.819 375.006 621.403 374.478C620.987 373.934 620.299 373.662 619.339 373.662C618.651 373.662 618.035 373.838 617.491 374.19C616.947 374.542 616.331 375.07 615.643 375.774V383.91H613.675ZM632.457 384.198C631.065 384.198 630.041 383.798 629.385 382.998C628.729 382.198 628.401 381.03 628.401 379.494V372.246H630.393V379.23C630.393 380.334 630.593 381.158 630.993 381.702C631.409 382.23 632.105 382.494 633.081 382.494C633.753 382.494 634.361 382.326 634.905 381.99C635.465 381.638 636.065 381.086 636.705 380.334V372.246H638.673V383.91H637.065L636.897 381.87H636.801C636.209 382.542 635.561 383.102 634.857 383.55C634.153 383.982 633.353 384.198 632.457 384.198ZM643.056 383.91V372.246H644.64L644.808 373.782H644.856C645.16 373.238 645.512 372.798 645.912 372.462C646.312 372.126 646.848 371.958 647.52 371.958C648.096 371.958 648.568 372.126 648.936 372.462C649.304 372.798 649.568 373.302 649.728 373.974C650.064 373.35 650.432 372.862 650.832 372.51C651.248 372.142 651.792 371.958 652.464 371.958C653.28 371.958 653.912 372.27 654.36 372.894C654.824 373.502 655.056 374.39 655.056 375.558V383.91H653.088V375.702C653.088 374.342 652.672 373.662 651.84 373.662C651.44 373.662 651.104 373.814 650.832 374.118C650.576 374.406 650.288 374.854 649.968 375.462V383.91H648.144V375.702C648.144 375.03 648.048 374.526 647.856 374.19C647.68 373.838 647.376 373.662 646.944 373.662C646.544 373.662 646.192 373.814 645.888 374.118C645.6 374.406 645.312 374.854 645.024 375.462V383.91H643.056ZM662.678 384.198C661.958 384.198 661.294 384.07 660.686 383.814C660.078 383.542 659.598 383.158 659.246 382.662C658.894 382.166 658.718 381.574 658.718 380.886C658.718 379.574 659.374 378.582 660.686 377.91C661.998 377.222 664.158 376.758 667.166 376.518C667.15 375.99 667.038 375.502 666.83 375.054C666.638 374.606 666.318 374.254 665.87 373.998C665.422 373.726 664.822 373.59 664.07 373.59C663.574 373.59 663.078 373.662 662.582 373.806C662.102 373.934 661.638 374.11 661.19 374.334C660.758 374.542 660.358 374.758 659.99 374.982L659.222 373.638C659.606 373.382 660.07 373.126 660.614 372.87C661.174 372.598 661.774 372.382 662.414 372.222C663.054 372.046 663.718 371.958 664.406 371.958C665.478 371.958 666.358 372.158 667.046 372.558C667.75 372.958 668.27 373.518 668.606 374.238C668.958 374.942 669.134 375.782 669.134 376.758V383.91H667.526L667.358 382.326H667.286C666.646 382.838 665.926 383.278 665.126 383.646C664.326 384.014 663.51 384.198 662.678 384.198ZM663.206 382.614C663.878 382.614 664.542 382.462 665.198 382.158C665.854 381.854 666.51 381.43 667.166 380.886V377.814C665.502 377.958 664.19 378.158 663.23 378.414C662.286 378.67 661.614 378.998 661.214 379.398C660.83 379.782 660.638 380.23 660.638 380.742C660.638 381.174 660.758 381.534 660.998 381.822C661.238 382.094 661.55 382.294 661.934 382.422C662.334 382.55 662.758 382.614 663.206 382.614ZM674.117 383.91V372.246H675.749L675.917 374.238H676.013C676.621 373.582 677.277 373.038 677.981 372.606C678.685 372.174 679.493 371.958 680.405 371.958C681.781 371.958 682.797 372.358 683.453 373.158C684.109 373.958 684.437 375.126 684.437 376.662V383.91H682.469V376.926C682.469 375.822 682.261 375.006 681.845 374.478C681.429 373.934 680.741 373.662 679.781 373.662C679.093 373.662 678.477 373.838 677.933 374.19C677.389 374.542 676.773 375.07 676.085 375.774V383.91H674.117ZM694.436 384.198C693.3 384.198 692.236 384.014 691.244 383.646C690.252 383.278 689.404 382.854 688.7 382.374L689.612 381.078C690.284 381.558 691.028 381.942 691.844 382.23C692.66 382.518 693.604 382.662 694.676 382.662C695.668 382.662 696.404 382.478 696.884 382.11C697.38 381.742 697.628 381.318 697.628 380.838C697.628 380.614 697.58 380.406 697.484 380.214C697.404 380.022 697.236 379.838 696.98 379.662C696.74 379.486 696.38 379.318 695.9 379.158C695.42 378.998 694.78 378.838 693.98 378.678C692.46 378.358 691.316 377.926 690.548 377.382C689.796 376.838 689.42 376.134 689.42 375.27C689.42 374.326 689.828 373.542 690.644 372.918C691.46 372.278 692.668 371.958 694.268 371.958C695.164 371.958 696.028 372.11 696.86 372.414C697.692 372.702 698.396 373.046 698.972 373.446L698.012 374.718C697.484 374.334 696.884 374.038 696.212 373.83C695.54 373.606 694.836 373.494 694.1 373.494C693.428 373.494 692.892 373.574 692.492 373.734C692.108 373.878 691.828 374.078 691.652 374.334C691.492 374.59 691.412 374.87 691.412 375.174C691.412 375.67 691.676 376.062 692.204 376.35C692.748 376.622 693.612 376.878 694.796 377.118C696.092 377.39 697.084 377.694 697.772 378.03C698.476 378.366 698.956 378.75 699.212 379.182C699.484 379.614 699.62 380.126 699.62 380.718C699.62 381.358 699.42 381.942 699.02 382.47C698.62 382.982 698.036 383.398 697.268 383.718C696.5 384.038 695.556 384.198 694.436 384.198ZM709.306 384.198C708.778 384.198 708.322 384.014 707.938 383.646C707.554 383.262 707.362 382.774 707.362 382.182C707.362 381.574 707.554 381.086 707.938 380.718C708.322 380.334 708.778 380.142 709.306 380.142C709.85 380.142 710.306 380.334 710.674 380.718C711.058 381.086 711.25 381.574 711.25 382.182C711.25 382.774 711.058 383.262 710.674 383.646C710.306 384.014 709.85 384.198 709.306 384.198Z" fill="black"/>
<path d="M833.081 386.832H774.982C771.406 386.832 769.675 380.722 772.188 377.152L797.216 342.319C797.942 341.287 798.948 340.732 800.009 340.732H858.109C861.684 340.732 863.416 346.841 860.902 350.412L835.875 385.245C835.148 386.276 834.143 386.832 833.081 386.832Z" fill="#E9802A"/>
<path d="M914.924 386.832H856.824C853.249 386.832 851.517 380.722 854.031 377.152L879.058 342.319C879.785 341.287 880.79 340.732 881.852 340.732H939.951C943.527 340.732 945.258 346.841 942.745 350.412L917.717 385.245C916.935 386.276 915.985 386.832 914.924 386.832Z" fill="#E9802A"/>
</svg>
