<svg width="1029" height="461" viewBox="0 0 1029 461" fill="none" xmlns="http://www.w3.org/2000/svg">
<path d="M0 55C0 24.6243 24.6243 0 55 0H974C1004.38 0 1029 24.6243 1029 55V406C1029 436.376 1004.38 461 974 461H55C24.6243 461 0 436.376 0 406V55Z" fill="black"/>
<path d="M36 299.252V239.887C36 237.126 38.2386 234.887 41 234.887C43.7614 234.887 46 237.126 46 239.887V299.252C46 310.855 49.3836 321.184 54.6143 328.485C59.8504 335.794 66.6441 339.748 73.6533 339.748H955.387C962.359 339.748 969.154 335.817 974.398 328.523C979.636 321.238 983.04 310.913 983.04 299.252V239.887C983.04 237.126 985.279 234.887 988.04 234.887C990.801 234.887 993.04 237.126 993.04 239.887V299.252C993.04 312.771 989.11 325.194 982.518 334.362C975.932 343.52 966.4 349.748 955.387 349.748H73.6533C62.5898 349.748 53.0566 343.483 46.4844 334.309C39.9065 325.127 36 312.708 36 299.252Z" fill="white"/>
<path d="M984 146.951V87.5863C984 75.9831 980.617 65.6542 975.386 58.3529C970.15 51.0438 963.355 47.0902 956.346 47.0902H74.7007C67.7286 47.0903 60.9338 51.0206 55.689 58.3148C50.4511 65.5995 47.0474 75.9252 47.0474 87.5863V146.951C47.0474 149.712 44.8088 151.951 42.0474 151.951C39.2859 151.951 37.0474 149.712 37.0474 146.951V87.5863C37.0474 74.0666 40.9776 61.644 47.5698 52.476C54.1552 43.3176 63.6873 37.0903 74.7007 37.0902H956.346C967.41 37.0902 976.943 43.3548 983.515 52.5287C990.093 61.7106 994 74.1302 994 87.5863V146.951C994 149.712 991.761 151.951 989 151.951C986.238 151.95 984 149.712 984 146.951Z" fill="white"/>
<path d="M590.29 311.676H454.371C406.346 311.676 372.819 291.967 353.79 252.548C345.635 236.316 340.651 216.607 338.839 193.419C338.839 179.507 332.043 172.55 318.451 172.55H182.532C168.94 172.55 162.144 179.507 162.144 193.419C162.144 207.332 168.94 214.288 182.532 214.288H298.063C309.39 214.288 318.225 219.158 324.568 228.896C330.91 238.635 334.082 249.997 334.082 262.982C334.082 275.967 330.91 287.329 324.568 297.068C318.225 306.807 309.39 311.676 298.063 311.676H182.532C159.878 309.821 140.623 304.952 124.766 297.068C86.2553 277.127 67 242.577 67 193.419C67 144.261 86.2553 109.712 124.766 89.7703C140.623 81.8865 159.878 77.0171 182.532 75.1621H318.451C366.476 75.1621 400.229 94.8716 419.711 134.291C427.413 150.522 432.171 170.232 433.983 193.419C433.983 207.332 440.779 214.288 454.371 214.288H590.29C603.882 214.288 610.678 207.332 610.678 193.419C610.678 179.507 603.882 172.55 590.29 172.55H474.759C463.432 172.55 454.597 167.681 448.254 157.942C442.364 148.203 439.42 136.841 439.42 123.856C439.42 110.871 442.364 99.5092 448.254 89.7703C454.597 80.0315 463.432 75.1621 474.759 75.1621H590.29C612.944 77.0171 632.199 81.8865 648.056 89.7703C686.567 109.712 705.822 144.261 705.822 193.419C705.822 242.577 686.567 277.127 648.056 297.068C632.199 304.952 612.944 309.821 590.29 311.676Z" fill="white"/>
<path d="M742.49 311.676C719.837 309.821 700.581 304.952 684.724 297.068C646.214 277.127 626.958 242.577 626.958 193.419C626.958 144.261 646.214 109.712 684.724 89.7703C700.581 81.8865 719.837 77.0171 742.49 75.1621H925.981C937.308 75.1621 946.143 80.0315 952.486 89.7703C958.828 99.5092 962 110.871 962 123.856C962 136.841 958.828 148.203 952.486 157.942C946.143 167.681 937.308 172.55 925.981 172.55H742.49C728.898 172.55 722.102 179.507 722.102 193.419C722.102 207.332 728.898 214.288 742.49 214.288H925.981C937.308 214.288 946.143 219.158 952.486 228.896C958.828 238.635 962 249.997 962 262.982C962 275.967 958.828 287.329 952.486 297.068C946.143 306.807 937.308 311.676 925.981 311.676H742.49Z" fill="white"/>
<path d="M68.88 387.824C79.5467 387.824 84.88 392.88 84.88 402.992C84.88 408.069 83.472 411.994 80.656 414.768C78.0533 417.328 73.9787 418.608 68.432 418.608C62.9707 418.608 58.9387 417.37 56.336 414.896C53.7333 412.378 52.432 408.474 52.432 403.184C52.432 392.944 57.9147 387.824 68.88 387.824ZM68.688 394.8C66.8107 394.8 65.3173 395.546 64.208 397.04C63.1413 398.533 62.608 400.56 62.608 403.12C62.608 405.765 63.1413 407.856 64.208 409.392C65.3173 410.885 66.8107 411.632 68.688 411.632C70.5227 411.632 71.9733 410.885 73.04 409.392C74.1493 407.856 74.704 405.808 74.704 403.248C74.704 400.645 74.1493 398.597 73.04 397.104C71.9733 395.568 70.5227 394.8 68.688 394.8Z" fill="white"/>
<path d="M89.8725 388.592H99.1525V393.2C100.475 391.237 101.755 389.85 102.993 389.04C104.23 388.229 105.702 387.824 107.409 387.824C108.987 387.824 110.801 388.378 112.849 389.488L109.713 398.384C108.39 397.317 107.025 396.784 105.617 396.784C103.355 396.784 101.777 397.744 100.881 399.664C99.8992 401.754 99.4085 403.909 99.4085 406.128V417.84H89.8725V388.592Z" fill="white"/>
<path d="M144.868 373.04V417.84H135.332V414.96C132.601 417.392 129.55 418.608 126.18 418.608C122.212 418.608 119.033 417.242 116.644 414.512C114.297 411.738 113.124 408.026 113.124 403.376C113.124 398.213 114.489 394.288 117.22 391.6C119.78 389.082 122.979 387.824 126.82 387.824C130.361 387.824 133.198 389.04 135.332 391.472V373.04H144.868ZM129.38 394.864C127.545 394.864 126.073 395.61 124.964 397.104C123.854 398.597 123.3 400.602 123.3 403.12C123.3 405.765 123.833 407.834 124.9 409.328C125.966 410.821 127.438 411.568 129.316 411.568C133.412 411.568 135.46 408.794 135.46 403.248C135.46 400.645 134.905 398.597 133.796 397.104C132.729 395.61 131.257 394.864 129.38 394.864Z" fill="white"/>
<path d="M160.724 388.592V417.84H151.188V388.592H160.724ZM155.732 373.808C157.225 373.808 158.462 374.32 159.444 375.344C160.468 376.325 160.98 377.562 160.98 379.056C160.98 380.592 160.468 381.872 159.444 382.896C158.462 383.877 157.225 384.368 155.732 384.368C154.196 384.368 152.916 383.877 151.892 382.896C150.91 381.872 150.42 380.57 150.42 378.992C150.42 377.541 150.932 376.325 151.956 375.344C152.98 374.32 154.238 373.808 155.732 373.808Z" fill="white"/>
<path d="M176.631 388.592V392.368C178.21 390.661 179.703 389.488 181.111 388.848C182.519 388.165 184.226 387.824 186.231 387.824C190.199 387.824 193.1 389.082 194.935 391.6C196.13 393.221 196.727 395.76 196.727 399.216V417.84H187.191V402.48C187.191 400.005 186.828 398.277 186.103 397.296C185.42 396.272 184.204 395.76 182.455 395.76C180.151 395.76 178.53 396.506 177.591 398C176.951 398.981 176.631 400.666 176.631 403.056V417.84H167.095V388.592H176.631Z" fill="white"/>
<path d="M233.465 388.592V417.84H223.929V414.704C222.734 416.026 221.54 416.944 220.345 417.456C218.596 418.224 216.74 418.608 214.777 418.608C211.236 418.608 208.27 417.434 205.881 415.088C203.108 412.4 201.721 408.496 201.721 403.376C201.721 398.213 203.086 394.288 205.817 391.6C208.377 389.082 211.598 387.824 215.481 387.824C219.108 387.824 221.924 389.232 223.929 392.048V388.592H233.465ZM217.977 394.864C216.142 394.864 214.67 395.61 213.561 397.104C212.452 398.597 211.897 400.602 211.897 403.12C211.897 405.765 212.43 407.834 213.497 409.328C214.564 410.821 216.036 411.568 217.913 411.568C222.009 411.568 224.057 408.794 224.057 403.248C224.057 400.645 223.502 398.597 222.393 397.104C221.326 395.61 219.854 394.864 217.977 394.864Z" fill="white"/>
<path d="M239.785 388.592H249.065V393.2C250.388 391.237 251.668 389.85 252.905 389.04C254.142 388.229 255.614 387.824 257.321 387.824C258.9 387.824 260.713 388.378 262.761 389.488L259.625 398.384C258.302 397.317 256.937 396.784 255.529 396.784C253.268 396.784 251.689 397.744 250.793 399.664C249.812 401.754 249.321 403.909 249.321 406.128V417.84H239.785V388.592Z" fill="white"/>
<path d="M292.476 388.592L280.38 416.944C277.82 423.002 275.537 426.992 273.532 428.912C271.527 430.874 268.711 431.856 265.084 431.856C264.06 431.856 262.588 431.77 260.668 431.6L258.748 423.728C260.497 424.069 261.863 424.24 262.844 424.24C266.172 424.24 268.433 422.917 269.628 420.272L270.972 417.264L260.412 388.592H270.908L276.604 406.256L283.26 388.592H292.476Z" fill="white"/>
<path d="M336.854 397.104L328.022 399.792C327.894 395.866 326.422 393.904 323.605 393.904C321.685 393.904 320.192 394.757 319.125 396.464C318.059 398.17 317.526 400.56 317.526 403.632C317.526 409.477 319.382 412.4 323.094 412.4C324.459 412.4 325.483 411.994 326.165 411.184C326.891 410.33 327.467 408.858 327.893 406.768L337.046 409.2C336.064 412.442 334.528 414.746 332.438 416.112C329.878 417.776 326.549 418.608 322.453 418.608C317.845 418.608 314.304 417.456 311.829 415.152C308.843 412.378 307.35 408.432 307.35 403.312C307.35 398.362 308.8 394.48 311.702 391.664C314.304 389.104 318.123 387.824 323.158 387.824C327.68 387.824 331.115 388.826 333.462 390.832C335.126 392.24 336.256 394.33 336.854 397.104Z" fill="white"/>
<path d="M355.018 387.824C365.684 387.824 371.018 392.88 371.018 402.992C371.018 408.069 369.61 411.994 366.794 414.768C364.191 417.328 360.116 418.608 354.57 418.608C349.108 418.608 345.076 417.37 342.474 414.896C339.871 412.378 338.57 408.474 338.57 403.184C338.57 392.944 344.052 387.824 355.018 387.824ZM354.826 394.8C352.948 394.8 351.455 395.546 350.346 397.04C349.279 398.533 348.746 400.56 348.746 403.12C348.746 405.765 349.279 407.856 350.346 409.392C351.455 410.885 352.948 411.632 354.826 411.632C356.66 411.632 358.111 410.885 359.178 409.392C360.287 407.856 360.842 405.808 360.842 403.248C360.842 400.645 360.287 398.597 359.178 397.104C358.111 395.568 356.66 394.8 354.826 394.8Z" fill="white"/>
<path d="M376.01 388.592H385.546V391.856C388.106 389.168 391.093 387.824 394.506 387.824C396.597 387.824 398.303 388.165 399.626 388.848C400.991 389.53 402.25 390.704 403.402 392.368C406.303 389.338 409.631 387.824 413.386 387.824C416.671 387.824 419.21 388.762 421.002 390.64C422.837 392.474 423.754 395.098 423.754 398.512V417.84H414.218V401.84C414.218 397.829 412.703 395.824 409.674 395.824C406.389 395.824 404.746 398.021 404.746 402.416V417.84H395.21V401.776C395.21 397.765 393.695 395.76 390.666 395.76C387.253 395.76 385.546 398.192 385.546 403.056V417.84H376.01V388.592Z" fill="white"/>
<path d="M439.704 388.592V391.856C442.178 389.168 445.186 387.824 448.728 387.824C452.781 387.824 456.002 389.21 458.392 391.984C460.824 394.714 462.04 398.384 462.04 402.992C462.04 407.685 460.802 411.461 458.328 414.32C455.896 417.178 452.674 418.608 448.664 418.608C445.464 418.608 442.477 417.37 439.704 414.896V431.664H430.168V388.592H439.704ZM445.784 394.864C443.906 394.864 442.392 395.632 441.24 397.168C440.13 398.704 439.576 400.73 439.576 403.248C439.576 405.808 440.13 407.856 441.24 409.392C442.392 410.885 443.906 411.632 445.784 411.632C447.618 411.632 449.09 410.885 450.2 409.392C451.309 407.856 451.864 405.829 451.864 403.312C451.864 400.709 451.309 398.661 450.2 397.168C449.133 395.632 447.661 394.864 445.784 394.864Z" fill="white"/>
<path d="M497.413 388.592V417.84H487.876V414.704C486.682 416.026 485.487 416.944 484.292 417.456C482.543 418.224 480.687 418.608 478.724 418.608C475.183 418.608 472.218 417.434 469.828 415.088C467.055 412.4 465.668 408.496 465.668 403.376C465.668 398.213 467.034 394.288 469.764 391.6C472.324 389.082 475.546 387.824 479.428 387.824C483.055 387.824 485.871 389.232 487.876 392.048V388.592H497.413ZM481.924 394.864C480.09 394.864 478.618 395.61 477.508 397.104C476.399 398.597 475.844 400.602 475.844 403.12C475.844 405.765 476.378 407.834 477.444 409.328C478.511 410.821 479.983 411.568 481.861 411.568C485.957 411.568 488.004 408.794 488.004 403.248C488.004 400.645 487.45 398.597 486.34 397.104C485.274 395.61 483.802 394.864 481.924 394.864Z" fill="white"/>
<path d="M513.268 388.592V392.368C514.847 390.661 516.341 389.488 517.749 388.848C519.156 388.165 520.863 387.824 522.868 387.824C526.836 387.824 529.738 389.082 531.573 391.6C532.767 393.221 533.365 395.76 533.365 399.216V417.84H523.828V402.48C523.828 400.005 523.466 398.277 522.741 397.296C522.058 396.272 520.842 395.76 519.092 395.76C516.789 395.76 515.167 396.506 514.228 398C513.588 398.981 513.268 400.666 513.268 403.056V417.84H503.732V388.592H513.268Z" fill="white"/>
<path d="M567.861 388.592L555.765 416.944C553.205 423.002 550.922 426.992 548.917 428.912C546.912 430.874 544.096 431.856 540.469 431.856C539.445 431.856 537.973 431.77 536.053 431.6L534.133 423.728C535.882 424.069 537.248 424.24 538.229 424.24C541.557 424.24 543.818 422.917 545.013 420.272L546.357 417.264L535.797 388.592H546.293L551.989 406.256L558.645 388.592H567.861Z" fill="white"/>
<path d="M588.392 399.001V387.337H589.976L590.144 388.873H590.192C590.496 388.329 590.848 387.889 591.248 387.553C591.648 387.217 592.184 387.049 592.856 387.049C593.432 387.049 593.904 387.217 594.272 387.553C594.64 387.889 594.904 388.393 595.064 389.065C595.4 388.441 595.768 387.953 596.168 387.601C596.584 387.233 597.128 387.049 597.8 387.049C598.616 387.049 599.248 387.361 599.696 387.985C600.16 388.593 600.392 389.481 600.392 390.649V399.001H598.424V390.793C598.424 389.433 598.008 388.753 597.176 388.753C596.776 388.753 596.44 388.905 596.168 389.209C595.912 389.497 595.624 389.945 595.304 390.553V399.001H593.48V390.793C593.48 390.121 593.384 389.617 593.192 389.281C593.016 388.929 592.712 388.753 592.28 388.753C591.88 388.753 591.528 388.905 591.224 389.209C590.936 389.497 590.648 389.945 590.36 390.553V399.001H588.392Z" fill="white"/>
<path d="M608.015 399.289C607.295 399.289 606.631 399.161 606.023 398.905C605.415 398.633 604.935 398.249 604.583 397.753C604.231 397.257 604.055 396.665 604.055 395.977C604.055 394.665 604.711 393.673 606.023 393.001C607.335 392.313 609.495 391.849 612.503 391.609C612.487 391.081 612.375 390.593 612.167 390.145C611.975 389.697 611.655 389.345 611.207 389.089C610.759 388.817 610.159 388.681 609.407 388.681C608.911 388.681 608.415 388.753 607.919 388.897C607.439 389.025 606.975 389.201 606.527 389.425C606.095 389.633 605.695 389.849 605.327 390.073L604.559 388.729C604.943 388.473 605.407 388.217 605.951 387.961C606.511 387.689 607.111 387.473 607.751 387.313C608.391 387.137 609.055 387.049 609.743 387.049C610.815 387.049 611.695 387.249 612.383 387.649C613.087 388.049 613.607 388.609 613.943 389.329C614.295 390.033 614.471 390.873 614.471 391.849V399.001H612.863L612.695 397.417H612.623C611.983 397.929 611.263 398.369 610.463 398.737C609.663 399.105 608.847 399.289 608.015 399.289ZM608.543 397.705C609.215 397.705 609.879 397.553 610.535 397.249C611.191 396.945 611.847 396.521 612.503 395.977V392.905C610.839 393.049 609.527 393.249 608.567 393.505C607.623 393.761 606.951 394.089 606.551 394.489C606.167 394.873 605.975 395.321 605.975 395.833C605.975 396.265 606.095 396.625 606.335 396.913C606.575 397.185 606.887 397.385 607.271 397.513C607.671 397.641 608.095 397.705 608.543 397.705Z" fill="white"/>
<path d="M623.725 399.289C622.205 399.289 620.981 398.761 620.053 397.705C619.125 396.633 618.661 395.129 618.661 393.193C618.661 391.929 618.909 390.841 619.405 389.929C619.917 389.001 620.573 388.289 621.373 387.793C622.189 387.297 623.053 387.049 623.965 387.049C624.653 387.049 625.277 387.185 625.837 387.457C626.413 387.713 626.949 388.081 627.445 388.561H627.517L627.421 386.401V381.913H629.389V399.001H627.757L627.589 397.465H627.517C627.053 397.961 626.485 398.393 625.813 398.761C625.157 399.113 624.461 399.289 623.725 399.289ZM624.133 397.633C624.709 397.633 625.269 397.489 625.813 397.201C626.357 396.897 626.893 396.457 627.421 395.881V390.073C626.893 389.577 626.373 389.225 625.861 389.017C625.365 388.809 624.861 388.705 624.349 388.705C623.677 388.705 623.061 388.897 622.501 389.281C621.957 389.649 621.517 390.169 621.181 390.841C620.861 391.497 620.701 392.273 620.701 393.169C620.701 394.561 621.005 395.657 621.613 396.457C622.221 397.241 623.061 397.633 624.133 397.633Z" fill="white"/>
<path d="M640.252 399.289C639.084 399.289 638.02 399.049 637.06 398.569C636.116 398.089 635.364 397.393 634.804 396.481C634.244 395.553 633.964 394.441 633.964 393.145C633.964 391.881 634.244 390.793 634.804 389.881C635.364 388.969 636.092 388.273 636.988 387.793C637.9 387.297 638.876 387.049 639.916 387.049C641.036 387.049 641.988 387.281 642.772 387.745C643.572 388.193 644.18 388.825 644.596 389.641C645.028 390.457 645.244 391.417 645.244 392.521C645.244 392.745 645.236 392.961 645.22 393.169C645.204 393.377 645.18 393.561 645.148 393.721H635.284V392.185H643.972L643.468 392.737C643.468 391.361 643.148 390.329 642.508 389.641C641.884 388.953 641.036 388.609 639.964 388.609C639.244 388.609 638.572 388.785 637.948 389.137C637.34 389.489 636.852 390.001 636.484 390.673C636.116 391.345 635.932 392.169 635.932 393.145C635.932 394.153 636.132 394.993 636.532 395.665C636.932 396.337 637.476 396.849 638.164 397.201C638.852 397.537 639.628 397.705 640.492 397.705C641.196 397.705 641.828 397.609 642.388 397.417C642.964 397.209 643.516 396.937 644.044 396.601L644.764 397.897C644.188 398.281 643.524 398.609 642.772 398.881C642.036 399.153 641.196 399.289 640.252 399.289Z" fill="white"/>
<path d="M670.233 399.289C669.657 399.289 669.041 399.153 668.385 398.881C667.745 398.593 667.153 398.201 666.609 397.705H666.537L666.369 399.001H664.785V381.913H666.753V386.569L666.681 388.825H666.753C667.281 388.281 667.889 387.849 668.577 387.529C669.281 387.209 669.977 387.049 670.665 387.049C671.721 387.049 672.609 387.297 673.329 387.793C674.049 388.273 674.593 388.961 674.961 389.857C675.329 390.737 675.513 391.777 675.513 392.977C675.513 394.305 675.265 395.441 674.769 396.385C674.289 397.329 673.649 398.049 672.849 398.545C672.049 399.041 671.177 399.289 670.233 399.289ZM669.921 397.633C670.593 397.633 671.193 397.449 671.721 397.081C672.265 396.713 672.689 396.185 672.993 395.497C673.313 394.793 673.473 393.961 673.473 393.001C673.473 392.153 673.361 391.409 673.137 390.769C672.913 390.113 672.561 389.609 672.081 389.257C671.601 388.889 670.969 388.705 670.185 388.705C669.657 388.705 669.097 388.849 668.505 389.137C667.929 389.409 667.345 389.849 666.753 390.457V396.265C667.313 396.761 667.873 397.113 668.433 397.321C669.009 397.529 669.505 397.633 669.921 397.633Z" fill="white"/>
<path d="M680.808 404.017C680.552 404.017 680.28 403.993 679.992 403.945C679.72 403.897 679.48 403.841 679.272 403.777L679.68 402.217C679.84 402.265 680.008 402.305 680.184 402.337C680.376 402.369 680.56 402.385 680.736 402.385C681.552 402.385 682.216 402.145 682.728 401.665C683.24 401.201 683.64 400.609 683.928 399.889L684.288 399.025L678.84 387.337H680.832L683.688 393.793C683.912 394.305 684.144 394.857 684.384 395.449C684.64 396.025 684.888 396.601 685.128 397.177H685.224C685.432 396.617 685.64 396.049 685.848 395.473C686.072 394.881 686.28 394.321 686.472 393.793L689.016 387.337H690.888L685.752 399.961C685.464 400.729 685.104 401.417 684.672 402.025C684.24 402.649 683.704 403.137 683.064 403.489C682.44 403.841 681.688 404.017 680.808 404.017Z" fill="white"/>
<path d="M710.117 399.001V381.913H712.085V386.569L711.965 389.329H712.037C712.629 388.689 713.277 388.153 713.981 387.721C714.685 387.273 715.493 387.049 716.405 387.049C717.781 387.049 718.797 387.449 719.453 388.249C720.109 389.049 720.437 390.217 720.437 391.753V399.001H718.469V392.017C718.469 390.913 718.261 390.097 717.845 389.569C717.429 389.025 716.741 388.753 715.781 388.753C715.093 388.753 714.477 388.929 713.933 389.281C713.389 389.633 712.773 390.161 712.085 390.865V399.001H710.117Z" fill="white"/>
<path d="M728.9 399.289C727.508 399.289 726.484 398.889 725.828 398.089C725.172 397.289 724.844 396.121 724.844 394.585V387.337H726.836V394.321C726.836 395.425 727.036 396.249 727.436 396.793C727.852 397.321 728.548 397.585 729.524 397.585C730.196 397.585 730.804 397.417 731.348 397.081C731.908 396.729 732.508 396.177 733.148 395.425V387.337H735.116V399.001H733.508L733.34 396.961H733.244C732.652 397.633 732.004 398.193 731.3 398.641C730.596 399.073 729.796 399.289 728.9 399.289Z" fill="white"/>
<path d="M739.498 399.001V387.337H741.082L741.25 388.873H741.298C741.602 388.329 741.954 387.889 742.354 387.553C742.754 387.217 743.29 387.049 743.962 387.049C744.538 387.049 745.01 387.217 745.378 387.553C745.746 387.889 746.01 388.393 746.17 389.065C746.506 388.441 746.874 387.953 747.274 387.601C747.69 387.233 748.234 387.049 748.906 387.049C749.722 387.049 750.354 387.361 750.802 387.985C751.266 388.593 751.498 389.481 751.498 390.649V399.001H749.53V390.793C749.53 389.433 749.114 388.753 748.282 388.753C747.882 388.753 747.546 388.905 747.274 389.209C747.018 389.497 746.73 389.945 746.41 390.553V399.001H744.586V390.793C744.586 390.121 744.49 389.617 744.298 389.281C744.122 388.929 743.818 388.753 743.386 388.753C742.986 388.753 742.634 388.905 742.33 389.209C742.042 389.497 741.754 389.945 741.466 390.553V399.001H739.498Z" fill="white"/>
<path d="M759.121 399.289C758.401 399.289 757.737 399.161 757.129 398.905C756.521 398.633 756.041 398.249 755.689 397.753C755.337 397.257 755.161 396.665 755.161 395.977C755.161 394.665 755.817 393.673 757.129 393.001C758.441 392.313 760.601 391.849 763.609 391.609C763.593 391.081 763.481 390.593 763.273 390.145C763.081 389.697 762.761 389.345 762.313 389.089C761.865 388.817 761.265 388.681 760.513 388.681C760.017 388.681 759.521 388.753 759.025 388.897C758.545 389.025 758.081 389.201 757.633 389.425C757.201 389.633 756.801 389.849 756.433 390.073L755.665 388.729C756.049 388.473 756.513 388.217 757.057 387.961C757.617 387.689 758.217 387.473 758.857 387.313C759.497 387.137 760.161 387.049 760.849 387.049C761.921 387.049 762.801 387.249 763.489 387.649C764.193 388.049 764.713 388.609 765.049 389.329C765.401 390.033 765.577 390.873 765.577 391.849V399.001H763.969L763.801 397.417H763.729C763.089 397.929 762.369 398.369 761.569 398.737C760.769 399.105 759.953 399.289 759.121 399.289ZM759.649 397.705C760.321 397.705 760.985 397.553 761.641 397.249C762.297 396.945 762.953 396.521 763.609 395.977V392.905C761.945 393.049 760.633 393.249 759.673 393.505C758.729 393.761 758.057 394.089 757.657 394.489C757.273 394.873 757.081 395.321 757.081 395.833C757.081 396.265 757.201 396.625 757.441 396.913C757.681 397.185 757.993 397.385 758.377 397.513C758.777 397.641 759.201 397.705 759.649 397.705Z" fill="white"/>
<path d="M770.56 399.001V387.337H772.192L772.359 389.329H772.456C773.063 388.673 773.72 388.129 774.424 387.697C775.128 387.265 775.936 387.049 776.848 387.049C778.224 387.049 779.24 387.449 779.896 388.249C780.552 389.049 780.88 390.217 780.88 391.753V399.001H778.911V392.017C778.911 390.913 778.704 390.097 778.288 389.569C777.872 389.025 777.184 388.753 776.224 388.753C775.536 388.753 774.919 388.929 774.375 389.281C773.831 389.633 773.216 390.161 772.528 390.865V399.001H770.56Z" fill="white"/>
<path d="M790.878 399.289C789.742 399.289 788.678 399.105 787.686 398.737C786.694 398.369 785.846 397.945 785.142 397.465L786.054 396.169C786.726 396.649 787.47 397.033 788.286 397.321C789.102 397.609 790.046 397.753 791.118 397.753C792.11 397.753 792.846 397.569 793.326 397.201C793.822 396.833 794.07 396.409 794.07 395.929C794.07 395.705 794.022 395.497 793.926 395.305C793.846 395.113 793.678 394.929 793.422 394.753C793.182 394.577 792.822 394.409 792.342 394.249C791.862 394.089 791.222 393.929 790.422 393.769C788.902 393.449 787.758 393.017 786.99 392.473C786.238 391.929 785.862 391.225 785.862 390.361C785.862 389.417 786.27 388.633 787.086 388.009C787.902 387.369 789.11 387.049 790.71 387.049C791.606 387.049 792.47 387.201 793.302 387.505C794.134 387.793 794.838 388.137 795.414 388.537L794.454 389.809C793.926 389.425 793.326 389.129 792.654 388.921C791.982 388.697 791.278 388.585 790.542 388.585C789.87 388.585 789.334 388.665 788.934 388.825C788.55 388.969 788.27 389.169 788.094 389.425C787.934 389.681 787.854 389.961 787.854 390.265C787.854 390.761 788.118 391.153 788.646 391.441C789.19 391.713 790.054 391.969 791.238 392.209C792.534 392.481 793.526 392.785 794.214 393.121C794.918 393.457 795.398 393.841 795.654 394.273C795.926 394.705 796.062 395.217 796.062 395.809C796.062 396.449 795.862 397.033 795.462 397.561C795.062 398.073 794.478 398.489 793.71 398.809C792.942 399.129 791.998 399.289 790.878 399.289Z" fill="white"/>
<path d="M592.808 421.001V408.353C592.808 407.409 592.976 406.585 593.312 405.881C593.664 405.161 594.184 404.609 594.872 404.225C595.56 403.825 596.44 403.625 597.512 403.625C598.088 403.625 598.648 403.681 599.192 403.793C599.752 403.889 600.312 404.057 600.872 404.297L600.416 405.785C599.936 405.561 599.488 405.417 599.072 405.353C598.672 405.273 598.216 405.233 597.704 405.233C596.664 405.233 595.912 405.505 595.448 406.049C594.984 406.593 594.752 407.337 594.752 408.281V421.001H592.808ZM589.472 410.945V409.457L592.88 409.337H599.648V410.945H589.472Z" fill="white"/>
<path d="M609.311 421.289C608.287 421.289 607.335 421.049 606.455 420.569C605.591 420.089 604.887 419.393 604.343 418.481C603.815 417.569 603.551 416.473 603.551 415.193C603.551 413.881 603.815 412.769 604.343 411.857C604.887 410.945 605.591 410.249 606.455 409.769C607.335 409.289 608.287 409.049 609.311 409.049C610.335 409.049 611.279 409.289 612.143 409.769C613.023 410.249 613.727 410.945 614.255 411.857C614.799 412.769 615.071 413.881 615.071 415.193C615.071 416.473 614.799 417.569 614.255 418.481C613.727 419.393 613.023 420.089 612.143 420.569C611.279 421.049 610.335 421.289 609.311 421.289ZM609.311 419.657C610.063 419.657 610.719 419.473 611.279 419.105C611.839 418.721 612.271 418.193 612.575 417.521C612.879 416.849 613.031 416.073 613.031 415.193C613.031 414.297 612.879 413.513 612.575 412.841C612.271 412.153 611.839 411.625 611.279 411.257C610.719 410.873 610.063 410.681 609.311 410.681C608.559 410.681 607.903 410.873 607.343 411.257C606.799 411.625 606.367 412.153 606.047 412.841C605.743 413.513 605.591 414.297 605.591 415.193C605.591 416.073 605.743 416.849 606.047 417.521C606.367 418.193 606.799 418.721 607.343 419.105C607.903 419.473 608.559 419.657 609.311 419.657Z" fill="white"/>
<path d="M620.725 421.001V409.337H622.357L622.525 412.097H622.597C623.205 411.153 623.957 410.409 624.853 409.865C625.749 409.321 626.733 409.049 627.805 409.049C628.237 409.049 628.637 409.089 629.005 409.169C629.389 409.233 629.757 409.353 630.109 409.529L629.653 411.233C629.253 411.089 628.909 410.985 628.621 410.921C628.333 410.857 627.957 410.825 627.493 410.825C626.613 410.825 625.765 411.081 624.949 411.593C624.149 412.089 623.397 412.945 622.693 414.161V421.001H620.725Z" fill="white"/>
<path d="M649.674 421.001V403.913H651.643V408.569L651.523 411.329H651.594C652.186 410.689 652.835 410.153 653.539 409.721C654.242 409.273 655.051 409.049 655.963 409.049C657.339 409.049 658.354 409.449 659.01 410.249C659.667 411.049 659.995 412.217 659.995 413.753V421.001H658.026V414.017C658.026 412.913 657.819 412.097 657.403 411.569C656.987 411.025 656.299 410.753 655.339 410.753C654.651 410.753 654.034 410.929 653.49 411.281C652.946 411.633 652.331 412.161 651.643 412.865V421.001H649.674Z" fill="white"/>
<path d="M668.457 421.289C667.065 421.289 666.041 420.889 665.385 420.089C664.729 419.289 664.401 418.121 664.401 416.585V409.337H666.393V416.321C666.393 417.425 666.593 418.249 666.993 418.793C667.409 419.321 668.105 419.585 669.081 419.585C669.753 419.585 670.361 419.417 670.905 419.081C671.465 418.729 672.065 418.177 672.705 417.425V409.337H674.673V421.001H673.065L672.897 418.961H672.801C672.209 419.633 671.561 420.193 670.857 420.641C670.153 421.073 669.353 421.289 668.457 421.289Z" fill="white"/>
<path d="M679.056 421.001V409.337H680.64L680.808 410.873H680.856C681.16 410.329 681.512 409.889 681.912 409.553C682.312 409.217 682.848 409.049 683.52 409.049C684.096 409.049 684.568 409.217 684.936 409.553C685.304 409.889 685.568 410.393 685.728 411.065C686.064 410.441 686.432 409.953 686.832 409.601C687.248 409.233 687.792 409.049 688.464 409.049C689.28 409.049 689.912 409.361 690.36 409.985C690.824 410.593 691.056 411.481 691.056 412.649V421.001H689.088V412.793C689.088 411.433 688.672 410.753 687.84 410.753C687.44 410.753 687.104 410.905 686.832 411.209C686.576 411.497 686.288 411.945 685.968 412.553V421.001H684.144V412.793C684.144 412.121 684.048 411.617 683.856 411.281C683.68 410.929 683.376 410.753 682.944 410.753C682.544 410.753 682.192 410.905 681.888 411.209C681.6 411.497 681.312 411.945 681.024 412.553V421.001H679.056Z" fill="white"/>
<path d="M698.678 421.289C697.958 421.289 697.294 421.161 696.686 420.905C696.078 420.633 695.598 420.249 695.246 419.753C694.894 419.257 694.718 418.665 694.718 417.977C694.718 416.665 695.374 415.673 696.686 415.001C697.998 414.313 700.158 413.849 703.166 413.609C703.15 413.081 703.038 412.593 702.83 412.145C702.638 411.697 702.318 411.345 701.87 411.089C701.422 410.817 700.822 410.681 700.07 410.681C699.574 410.681 699.078 410.753 698.582 410.897C698.102 411.025 697.638 411.201 697.19 411.425C696.758 411.633 696.358 411.849 695.99 412.073L695.222 410.729C695.606 410.473 696.07 410.217 696.614 409.961C697.174 409.689 697.774 409.473 698.414 409.313C699.054 409.137 699.718 409.049 700.406 409.049C701.478 409.049 702.358 409.249 703.046 409.649C703.75 410.049 704.27 410.609 704.606 411.329C704.958 412.033 705.134 412.873 705.134 413.849V421.001H703.526L703.358 419.417H703.286C702.646 419.929 701.926 420.369 701.126 420.737C700.326 421.105 699.51 421.289 698.678 421.289ZM699.206 419.705C699.878 419.705 700.542 419.553 701.198 419.249C701.854 418.945 702.51 418.521 703.166 417.977V414.905C701.502 415.049 700.19 415.249 699.23 415.505C698.286 415.761 697.614 416.089 697.214 416.489C696.83 416.873 696.638 417.321 696.638 417.833C696.638 418.265 696.758 418.625 696.998 418.913C697.238 419.185 697.55 419.385 697.934 419.513C698.334 419.641 698.758 419.705 699.206 419.705Z" fill="white"/>
<path d="M710.117 421.001V409.337H711.749L711.917 411.329H712.013C712.621 410.673 713.277 410.129 713.981 409.697C714.685 409.265 715.493 409.049 716.405 409.049C717.781 409.049 718.797 409.449 719.453 410.249C720.109 411.049 720.437 412.217 720.437 413.753V421.001H718.469V414.017C718.469 412.913 718.261 412.097 717.845 411.569C717.429 411.025 716.741 410.753 715.781 410.753C715.093 410.753 714.477 410.929 713.933 411.281C713.389 411.633 712.773 412.161 712.085 412.865V421.001H710.117Z" fill="white"/>
<path d="M730.436 421.289C729.3 421.289 728.236 421.105 727.244 420.737C726.252 420.369 725.404 419.945 724.7 419.465L725.612 418.169C726.284 418.649 727.028 419.033 727.844 419.321C728.66 419.609 729.604 419.753 730.676 419.753C731.668 419.753 732.404 419.569 732.884 419.201C733.38 418.833 733.628 418.409 733.628 417.929C733.628 417.705 733.58 417.497 733.484 417.305C733.404 417.113 733.236 416.929 732.98 416.753C732.74 416.577 732.38 416.409 731.9 416.249C731.42 416.089 730.78 415.929 729.98 415.769C728.46 415.449 727.316 415.017 726.548 414.473C725.796 413.929 725.42 413.225 725.42 412.361C725.42 411.417 725.828 410.633 726.644 410.009C727.46 409.369 728.668 409.049 730.268 409.049C731.164 409.049 732.028 409.201 732.86 409.505C733.692 409.793 734.396 410.137 734.972 410.537L734.012 411.809C733.484 411.425 732.884 411.129 732.212 410.921C731.54 410.697 730.836 410.585 730.1 410.585C729.428 410.585 728.892 410.665 728.492 410.825C728.108 410.969 727.828 411.169 727.652 411.425C727.492 411.681 727.412 411.961 727.412 412.265C727.412 412.761 727.676 413.153 728.204 413.441C728.748 413.713 729.612 413.969 730.796 414.209C732.092 414.481 733.084 414.785 733.772 415.121C734.476 415.457 734.956 415.841 735.212 416.273C735.484 416.705 735.62 417.217 735.62 417.809C735.62 418.449 735.42 419.033 735.02 419.561C734.62 420.073 734.036 420.489 733.268 420.809C732.5 421.129 731.556 421.289 730.436 421.289Z" fill="white"/>
<path d="M745.306 421.289C744.778 421.289 744.322 421.105 743.938 420.737C743.554 420.353 743.362 419.865 743.362 419.273C743.362 418.665 743.554 418.177 743.938 417.809C744.322 417.425 744.778 417.233 745.306 417.233C745.85 417.233 746.306 417.425 746.674 417.809C747.058 418.177 747.25 418.665 747.25 419.273C747.25 419.865 747.058 420.353 746.674 420.737C746.306 421.105 745.85 421.289 745.306 421.289Z" fill="white"/>
<path d="M869.149 423.922H811.049C807.474 423.922 805.742 417.813 808.256 414.242L833.283 379.409C834.01 378.378 835.015 377.822 836.077 377.822H894.177C897.752 377.822 899.484 383.932 896.97 387.503L871.942 422.335C871.216 423.367 870.21 423.922 869.149 423.922Z" fill="#E9802A"/>
<path d="M950.991 423.922H892.892C889.316 423.922 887.584 417.813 890.098 414.242L915.126 379.409C915.852 378.378 916.858 377.822 917.919 377.822H976.019C979.594 377.822 981.326 383.932 978.812 387.503L953.785 422.335C953.003 423.367 952.053 423.922 950.991 423.922Z" fill="#E9802A"/>
</svg>
