<svg width="476" height="418" viewBox="0 0 476 418" fill="none" xmlns="http://www.w3.org/2000/svg">
<path d="M473.06 299.41C474.16 301.2 474.99 302.87 475.74 304.91L461.4 328.55L449.7 348.11L440.28 363.72L426.29 386.87L352.69 386.83L352.66 320.36L378.1 320.27L386 307.61C387.58 305.08 387.48 303.82 385.98 301.22L356.6 250.45L348.94 237L341.68 224.34L335.15 213.08L312.93 174.11L303.56 157.71L283.21 122.38L276.4 110.52L263.5 88.05L254.03 71.76L243.49 71.51L243.47 0.0100098H291.1L298.18 12.36L307.07 27.34L320.1 49.49L333.73 72.55L331.94 90.47C331.74 92.5 331.01 95.02 332.01 96.68L336.8 104.66L350.44 127.86L361.49 146.43L373.85 167.58L385.01 186.59L394.75 203.09L401.17 214.21L414.04 236.18L427.17 236.13C429.61 236.13 432.33 236.41 434.63 236.99L444.97 254.02L452.07 265.2L460.28 278.64L473.08 299.43L473.06 299.41Z" fill="black"/>
<path d="M32.15 357.65L0 304.72C1.41 301.94 2.95 299.32 4.65 296.57L12.71 283.53L23.73 265.53L34.49 247.97L41.43 236.85C48.21 235.92 55.1 236.05 62.4 236.21L66.94 228.04L77.37 210.1L87.04 193.46L98.5 173.72L106.64 159.66L114.99 145.3L119.02 138.42L130.63 118.68L139.15 104.07L143.79 96.08L141.35 72.43L145.64 64.87L151.74 54.41L171.38 20.74L178.74 8.13L183.17 0.02L231.31 0L231.28 71.54L220.95 71.71L214.99 82.14L203.01 103.18L188.7 128.15L179.42 144.33L169.73 161.48L147 201.31L140.13 213.27L135.79 220.9L130.51 230.32L119.3 249.9L88.05 304.4L91.19 309.67L97.77 320.27L123.22 320.37V386.85L49.67 386.89L43.63 376.72C40.72 371.63 37.33 367.07 34.49 361.92L32.15 357.67V357.65Z" fill="black"/>
<path d="M329.52 299.26C329.92 302.26 330.83 308.14 327.06 308.12L303.35 307.98L152.47 308.08C150.31 308.08 148.43 308.09 146.84 307.95L146.72 299.3L234.19 299.32H261.02L295.69 299.28H329.52V299.26Z" fill="black"/>
<path d="M32.35 383C32.63 383.46 32.93 384 33.05 384.22C33.2 384.51 32.04 385.06 31.71 385.06L12 384.84L11.97 367.52L11.87 350.79C14.6 354.1 16.34 357.29 18.52 360.76L26.43 373.39L32.36 383.01L32.35 383Z" fill="black"/>
<path d="M456.13 384.96L442.52 384.99L461.56 354.63C462.43 353.24 463.02 352.15 464.01 350.85L463.98 384.65C461.44 385.04 458.83 384.96 456.11 384.97L456.13 384.96Z" fill="black"/>
<path d="M161.631 321.712H197.634V329.864H161.631V321.712ZM159.736 347.842H199.092V356.066H159.736V347.842ZM183.131 325.278H191.439V386.491H183.131V325.278ZM166.732 325.497H174.895V350.171C174.895 353.179 174.773 356.358 174.531 359.706C174.288 363.005 173.802 366.305 173.073 369.604C172.393 372.855 171.372 375.985 170.012 378.994C168.7 382.002 166.902 384.671 164.619 387C164.133 386.466 163.501 385.884 162.724 385.253C161.946 384.622 161.12 383.992 160.246 383.361C159.42 382.778 158.691 382.318 158.059 381.978C160.003 379.843 161.533 377.465 162.651 374.845C163.817 372.225 164.692 369.483 165.275 366.62C165.858 363.709 166.246 360.846 166.441 358.032C166.635 355.217 166.732 352.573 166.732 350.098V325.497ZM131.531 321.566H158.132V329.427H131.531V321.566ZM139.766 343.984H157.258V377.611H139.766V369.968H149.824V351.699H139.766V343.984ZM140.058 325.424L147.929 327.171C147.054 331.781 145.937 336.366 144.576 340.927C143.216 345.488 141.588 349.758 139.693 353.737C137.798 357.716 135.588 361.21 133.061 364.218C132.964 363.442 132.745 362.399 132.405 361.089C132.065 359.778 131.676 358.468 131.239 357.158C130.802 355.8 130.389 354.708 130 353.883C132.575 350.438 134.664 346.216 136.268 341.218C137.871 336.22 139.134 330.956 140.058 325.424ZM135.976 343.984H143.192V382.997H135.976V343.984Z" fill="black"/>
<path d="M209.441 356.576H252.003V364.655H209.441V356.576ZM247.193 356.576H256.376V374.772C256.376 375.937 256.498 376.665 256.741 376.956C256.984 377.247 257.469 377.392 258.198 377.392C258.393 377.392 258.66 377.392 259 377.392C259.34 377.392 259.705 377.392 260.093 377.392C260.531 377.392 260.919 377.392 261.259 377.392C261.648 377.392 261.94 377.392 262.134 377.392C262.668 377.392 263.081 377.174 263.373 376.737C263.664 376.252 263.859 375.257 263.956 373.753C264.102 372.249 264.223 369.968 264.32 366.911C264.952 367.445 265.754 367.955 266.725 368.44C267.697 368.925 268.718 369.362 269.786 369.75C270.855 370.138 271.779 370.454 272.556 370.696C272.313 374.675 271.827 377.781 271.098 380.013C270.418 382.245 269.446 383.797 268.183 384.671C266.92 385.544 265.219 385.981 263.081 385.981C262.693 385.981 262.207 385.981 261.624 385.981C261.041 385.981 260.433 385.981 259.802 385.981C259.17 385.981 258.563 385.981 257.98 385.981C257.397 385.981 256.935 385.981 256.595 385.981C254.214 385.981 252.319 385.641 250.91 384.962C249.55 384.283 248.578 383.142 247.995 381.541C247.46 379.94 247.193 377.708 247.193 374.845V356.576ZM233.346 318H242.383V329.573H233.346V318ZM224.527 330.301H233.71C233.37 333.406 232.811 336.22 232.034 338.744C231.256 341.218 230.018 343.426 228.317 345.367C226.616 347.308 224.26 349.006 221.247 350.462C218.235 351.869 214.324 353.034 209.514 353.956C209.125 352.888 208.493 351.651 207.619 350.244C206.744 348.836 205.869 347.72 204.995 346.896C209.125 346.216 212.405 345.391 214.834 344.421C217.312 343.45 219.207 342.31 220.519 341C221.831 339.641 222.754 338.089 223.288 336.342C223.871 334.546 224.284 332.533 224.527 330.301ZM241.581 330.665H250.254V342.019C250.254 342.989 250.4 343.596 250.692 343.839C250.983 344.033 251.663 344.13 252.732 344.13C252.975 344.13 253.34 344.13 253.825 344.13C254.36 344.13 254.943 344.13 255.575 344.13C256.206 344.13 256.789 344.13 257.324 344.13C257.907 344.13 258.344 344.13 258.636 344.13C259.219 344.13 259.656 344.033 259.947 343.839C260.239 343.596 260.458 343.111 260.603 342.383C260.749 341.655 260.871 340.563 260.968 339.108C261.502 339.544 262.207 339.981 263.081 340.418C264.005 340.806 264.952 341.17 265.924 341.509C266.895 341.801 267.77 342.019 268.547 342.165C268.256 344.736 267.77 346.726 267.09 348.133C266.458 349.492 265.535 350.462 264.32 351.044C263.106 351.578 261.527 351.845 259.583 351.845C259.146 351.845 258.538 351.845 257.761 351.845C257.032 351.845 256.255 351.845 255.429 351.845C254.603 351.845 253.825 351.845 253.097 351.845C252.368 351.845 251.785 351.845 251.347 351.845C248.724 351.845 246.683 351.554 245.225 350.972C243.816 350.341 242.845 349.322 242.31 347.915C241.824 346.459 241.581 344.518 241.581 342.092V330.665ZM206.453 324.405H269.714V338.671H260.531V332.193H215.271V339.326H206.453V324.405ZM228.681 348.57H237.427V358.104C237.427 360.191 237.233 362.302 236.844 364.437C236.455 366.572 235.702 368.707 234.585 370.842C233.467 372.977 231.888 375.039 229.847 377.028C227.807 378.969 225.134 380.765 221.831 382.415C218.575 384.113 214.542 385.569 209.732 386.782C209.101 385.714 208.202 384.501 207.036 383.142C205.918 381.784 204.873 380.619 203.902 379.649C208.226 378.581 211.846 377.368 214.761 376.009C217.725 374.651 220.13 373.244 221.976 371.788C223.823 370.284 225.207 368.755 226.131 367.203C227.102 365.601 227.758 364.024 228.098 362.472C228.487 360.87 228.681 359.342 228.681 357.886V348.57Z" fill="black"/>
<path d="M278.022 321.712H310.381V329.573H278.022V321.712ZM316.358 342.747H345V351.19H316.358V342.747ZM329.841 348.642H338.441V386.491H329.841V348.642ZM312.932 324.623L323.427 327.025C323.33 327.753 322.674 328.214 321.459 328.408V344.93C321.459 347.89 321.314 351.166 321.022 354.756C320.731 358.299 320.123 361.962 319.2 365.747C318.325 369.483 316.989 373.122 315.192 376.665C313.442 380.207 311.11 383.434 308.195 386.345C307.855 385.714 307.296 385.011 306.519 384.234C305.741 383.458 304.915 382.706 304.041 381.978C303.215 381.299 302.462 380.789 301.781 380.449C304.308 377.878 306.3 375.088 307.758 372.079C309.264 369.071 310.381 365.989 311.11 362.835C311.888 359.681 312.373 356.576 312.568 353.519C312.811 350.413 312.932 347.502 312.932 344.785V324.623ZM280.354 335.104H288.663V353.737C288.663 356.164 288.59 358.832 288.444 361.744C288.298 364.607 287.982 367.518 287.497 370.478C287.011 373.438 286.33 376.301 285.456 379.066C284.581 381.832 283.44 384.331 282.031 386.563C281.593 386.03 280.937 385.423 280.063 384.744C279.188 384.064 278.289 383.409 277.366 382.778C276.492 382.148 275.763 381.662 275.18 381.323C276.783 378.703 277.949 375.791 278.678 372.589C279.407 369.338 279.868 366.086 280.063 362.835C280.257 359.536 280.354 356.479 280.354 353.665V335.104ZM336.91 318.801L344.563 325.351C341.988 326.613 339.169 327.802 336.108 328.918C333.047 329.985 329.938 330.956 326.78 331.829C323.621 332.703 320.536 333.503 317.524 334.231C317.329 333.212 316.916 332.023 316.285 330.665C315.702 329.257 315.143 328.117 314.608 327.244C317.329 326.516 320.05 325.715 322.771 324.842C325.541 323.968 328.14 323.022 330.569 322.003C333.047 320.936 335.161 319.868 336.91 318.801ZM285.164 335.104H308.924V359.924H285.164V352.136H300.469V342.892H285.164V335.104Z" fill="black"/>
<path d="M27.4564 398.267V402.027H22.0466V417.733H17.4097V402.027H12V398.267H27.4564Z" fill="black"/>
<path d="M42.1037 409.333H35.3615V417.733H30.8312V398.267H35.3615V405.893H42.1037V398.267H46.634V417.733H42.1037V409.333Z" fill="black"/>
<path d="M55.2181 401.92V405.893H62.5998V409.333H55.2181V414.08H63.1328V417.733H50.6878V398.267H63.1328V401.92H55.2181Z" fill="black"/>
<path d="M79.8663 398.267V413.973H88.0741V417.733H75.2027V398.267H79.8663Z" fill="black"/>
<path d="M90.3957 417.733L96.978 398.267H101.775L108.33 417.733H103.534L102.388 413.52H96.2318L95.1126 417.733H90.3957ZM97.1645 410.08H101.482L99.3497 402.187H99.2964L97.1645 410.08Z" fill="black"/>
<path d="M115.489 405.973H116.368C118.962 405.973 120.259 405.2 120.259 403.653C120.259 402.178 119.166 401.44 116.981 401.44C116.43 401.44 115.933 401.493 115.489 401.6V405.973ZM115.489 409.227V414.4C116.004 414.507 116.537 414.56 117.088 414.56C118.349 414.56 119.273 414.329 119.859 413.867C120.445 413.387 120.738 412.658 120.738 411.68C120.738 410.044 119.397 409.227 116.714 409.227H115.489ZM124.976 412.133C124.976 414.124 124.327 415.6 123.03 416.56C121.733 417.52 119.69 418 116.901 418C114.84 418 112.886 417.867 111.038 417.6V398.4C112.797 398.133 114.662 398 116.634 398C121.787 398 124.363 399.662 124.363 402.987C124.363 404.107 123.998 405.067 123.27 405.867C122.542 406.667 121.573 407.164 120.365 407.36V407.413C121.787 407.591 122.906 408.116 123.723 408.987C124.558 409.858 124.976 410.907 124.976 412.133Z" fill="black"/>
<path d="M140.55 405.973H141.429C144.023 405.973 145.32 405.2 145.32 403.653C145.32 402.178 144.228 401.44 142.042 401.44C141.492 401.44 140.994 401.493 140.55 401.6V405.973ZM140.55 409.227V414.4C141.065 414.507 141.598 414.56 142.149 414.56C143.41 414.56 144.334 414.329 144.92 413.867C145.507 413.387 145.8 412.658 145.8 411.68C145.8 410.044 144.459 409.227 141.776 409.227H140.55ZM150.037 412.133C150.037 414.124 149.389 415.6 148.092 416.56C146.795 417.52 144.752 418 141.962 418C139.902 418 137.947 417.867 136.1 417.6V398.4C137.858 398.133 139.724 398 141.696 398C146.848 398 149.424 399.662 149.424 402.987C149.424 404.107 149.06 405.067 148.331 405.867C147.603 406.667 146.635 407.164 145.427 407.36V407.413C146.848 407.591 147.967 408.116 148.785 408.987C149.62 409.858 150.037 410.907 150.037 412.133Z" fill="black"/>
<path d="M155.523 398.267L159.307 406.613H159.36L163.144 398.267H168.207L161.598 410.267V417.733H156.935V410.267L150.353 398.267H155.523Z" fill="black"/>
<path d="M180.532 400.693C182.326 398.898 184.724 398 187.727 398C190.729 398 193.119 398.898 194.895 400.693C196.69 402.489 197.587 404.924 197.587 408C197.587 411.076 196.69 413.511 194.895 415.307C193.119 417.102 190.729 418 187.727 418C184.724 418 182.326 417.102 180.532 415.307C178.755 413.511 177.867 411.076 177.867 408C177.867 404.924 178.755 402.489 180.532 400.693ZM183.863 412.667C184.786 413.733 186.074 414.267 187.727 414.267C189.379 414.267 190.658 413.733 191.564 412.667C192.488 411.6 192.95 410.044 192.95 408C192.95 405.956 192.488 404.4 191.564 403.333C190.658 402.267 189.379 401.733 187.727 401.733C186.074 401.733 184.786 402.267 183.863 403.333C182.957 404.4 182.504 405.956 182.504 408C182.504 410.044 182.957 411.6 183.863 412.667Z" fill="black"/>
<path d="M204.882 410.533V417.733H200.432V398.4C202.386 398.133 204.518 398 206.828 398C209.492 398 211.473 398.507 212.77 399.52C214.085 400.516 214.742 401.938 214.742 403.787C214.742 404.978 214.396 406.053 213.703 407.013C213.01 407.956 212.095 408.631 210.958 409.04V409.093C211.882 409.609 212.637 410.667 213.223 412.267L215.275 417.733H210.612L208.773 412.453C208.524 411.707 208.222 411.2 207.867 410.933C207.512 410.667 206.961 410.533 206.215 410.533H204.882ZM204.882 407.2H206.374C207.618 407.2 208.569 406.942 209.226 406.427C209.883 405.893 210.212 405.156 210.212 404.213C210.212 402.364 208.995 401.44 206.561 401.44C205.921 401.44 205.362 401.493 204.882 401.6V407.2Z" fill="black"/>
<path d="M234.168 407.733C234.168 411.004 233.262 413.538 231.45 415.333C229.655 417.111 227.124 418 223.855 418C221.883 418 220.017 417.867 218.258 417.6V398.4C220.017 398.133 221.883 398 223.855 398C227.124 398 229.655 398.862 231.45 400.587C233.262 402.293 234.168 404.676 234.168 407.733ZM229.851 407.733C229.851 403.609 227.968 401.547 224.201 401.547C223.686 401.547 223.189 401.6 222.709 401.707V414.293C223.189 414.4 223.686 414.453 224.201 414.453C227.968 414.453 229.851 412.213 229.851 407.733Z" fill="black"/>
<path d="M237.422 417.733V398.267H242.405V417.733H237.422Z" fill="black"/>
<path d="M246.859 417.733V398.267H251.283L258.185 410.213H258.238V398.267H262.662V417.733H258.238L251.336 405.787H251.283V417.733H246.859Z" fill="black"/>
<path d="M265.383 417.733L271.966 398.267H276.762L283.318 417.733H278.521L277.375 413.52H271.219L270.1 417.733H265.383ZM272.152 410.08H276.469L274.337 402.187H274.284L272.152 410.08Z" fill="black"/>
<path d="M290.476 410.533V417.733H286.026V398.4C287.98 398.133 290.112 398 292.422 398C295.086 398 297.067 398.507 298.364 399.52C299.679 400.516 300.336 401.938 300.336 403.787C300.336 404.978 299.99 406.053 299.297 407.013C298.604 407.956 297.689 408.631 296.552 409.04V409.093C297.476 409.609 298.231 410.667 298.817 412.267L300.869 417.733H296.206L294.367 412.453C294.118 411.707 293.816 411.2 293.461 410.933C293.106 410.667 292.555 410.533 291.809 410.533H290.476ZM290.476 407.2H291.969C293.212 407.2 294.163 406.942 294.82 406.427C295.477 405.893 295.806 405.156 295.806 404.213C295.806 402.364 294.589 401.44 292.155 401.44C291.516 401.44 290.956 401.493 290.476 401.6V407.2Z" fill="black"/>
<path d="M306.229 398.267L310.014 406.613H310.067L313.851 398.267H318.914L312.305 410.267V417.733H307.642V410.267L301.06 398.267H306.229Z" fill="black"/>
<path d="M339.233 401.653C337.368 401.653 335.893 402.213 334.809 403.333C333.743 404.453 333.21 406.009 333.21 408C333.21 409.956 333.77 411.502 334.889 412.64C336.009 413.778 337.457 414.347 339.233 414.347C340.779 414.347 342.307 413.858 343.817 412.88L345.096 416.187C343.319 417.396 341.214 418 338.78 418C335.689 418 333.21 417.102 331.345 415.307C329.497 413.511 328.574 411.076 328.574 408C328.574 404.889 329.471 402.444 331.265 400.667C333.077 398.889 335.582 398 338.78 398C341.214 398 343.319 398.604 345.096 399.813L343.817 403.12C342.307 402.142 340.779 401.653 339.233 401.653Z" fill="black"/>
<path d="M349.56 400.693C351.354 398.898 353.752 398 356.755 398C359.757 398 362.147 398.898 363.923 400.693C365.718 402.489 366.615 404.924 366.615 408C366.615 411.076 365.718 413.511 363.923 415.307C362.147 417.102 359.757 418 356.755 418C353.752 418 351.354 417.102 349.56 415.307C347.783 413.511 346.895 411.076 346.895 408C346.895 404.924 347.783 402.489 349.56 400.693ZM352.891 412.667C353.815 413.733 355.103 414.267 356.755 414.267C358.407 414.267 359.686 413.733 360.592 412.667C361.516 411.6 361.978 410.044 361.978 408C361.978 405.956 361.516 404.4 360.592 403.333C359.686 402.267 358.407 401.733 356.755 401.733C355.103 401.733 353.815 402.267 352.891 403.333C351.985 404.4 351.532 405.956 351.532 408C351.532 410.044 351.985 411.6 352.891 412.667Z" fill="black"/>
<path d="M384.783 405.813H384.73L381.319 413.28H377.215L373.804 405.813H373.75V417.733H369.46V398.267H374.097L379.24 409.733H379.293L384.437 398.267H389.18V417.733H384.783V405.813Z" fill="black"/>
<path d="M393.22 398.4C395.068 398.133 397.022 398 399.083 398C404.768 398 407.61 400.116 407.61 404.347C407.61 406.64 406.944 408.382 405.612 409.573C404.297 410.747 402.361 411.333 399.802 411.333C399.163 411.333 398.452 411.298 397.67 411.227V417.733H393.22V398.4ZM397.67 407.867C398.239 407.956 398.799 408 399.349 408C400.628 408 401.614 407.707 402.307 407.12C403.018 406.516 403.373 405.68 403.373 404.613C403.373 402.498 402.032 401.44 399.349 401.44C398.763 401.44 398.203 401.493 397.67 401.6V407.867Z" fill="black"/>
<path d="M407.112 417.733L413.694 398.267H418.491L425.047 417.733H420.25L419.104 413.52H412.948L411.829 417.733H407.112ZM413.881 410.08H418.198L416.066 402.187H416.013L413.881 410.08Z" fill="black"/>
<path d="M427.754 417.733V398.267H432.178L439.08 410.213H439.133V398.267H443.557V417.733H439.133L432.231 405.787H432.178V417.733H427.754Z" fill="black"/>
<path d="M451.315 398.267L455.099 406.613H455.153L458.937 398.267H464L457.391 410.267V417.733H452.728V410.267L446.145 398.267H451.315Z" fill="black"/>
<path d="M310.712 247.847C311.221 248.102 311.697 248.393 311.738 248.792C311.79 249.285 311.439 249.77 310.906 250.024L281.879 263.681C281.172 264.013 280.473 263.98 279.803 263.714L272.77 260.935C272.152 260.688 271.575 260.474 271.106 261.141L276.543 266.117C276.705 266.267 276.919 266.703 276.931 266.913C276.947 267.163 276.636 267.705 276.345 267.842L240.585 284.52C238.848 285.328 237.567 285.272 235.847 284.472L200.123 267.781C199.876 267.668 199.557 267.139 199.565 266.913C199.573 266.687 199.8 266.255 200.026 266.045L205.091 261.375C205.224 261.254 205.257 260.911 205.16 260.83C205.035 260.729 204.578 260.636 204.413 260.7L196.669 263.75C195.938 264.037 195.336 263.964 194.613 263.625L165.324 249.814C165.065 249.693 164.823 249.047 164.88 248.792C164.944 248.494 165.36 248.146 165.732 247.964L175.854 242.911L162.84 238.371C162.565 238.274 162.153 237.898 162.04 237.676C161.907 237.418 162.129 236.788 162.395 236.533L174.626 224.807L175.519 224.451L176.388 220.166C176.759 218.328 177.725 214.377 180.043 214.365C180.124 213.796 180.201 213.04 180.338 212.418L182.362 203.277L186.316 199.868L180.298 190.832C179.89 190.218 179.356 189.236 179.356 188.465L179.348 169.537C179.348 168.749 179.926 167.893 180.415 167.529C181.085 167.028 182.039 166.875 182.911 167.149L203.52 173.62C204.732 174 205.491 175.062 206.263 175.947L211.679 182.16L213.238 181.614L212.063 179.708C211.982 179.578 211.885 179.191 211.914 179.041C211.95 178.851 212.297 178.573 212.515 178.504L223.022 175.151H253.466L264.316 178.532C264.89 178.71 264.869 179.485 264.587 179.885L263.468 181.461C263.823 181.849 264.502 182.111 265.043 182.075L271.28 174.97C271.882 174.283 272.653 173.762 273.566 173.479L293.993 167.109C295.734 166.568 297.301 168.139 297.301 169.706V188.251C297.301 189.564 296.441 190.723 295.762 191.745L290.378 199.824L294.361 203.362L296.219 211.905L296.639 214.325C298.974 214.781 299.741 217.984 300.181 220.032L301.098 224.27L301.898 224.766L314.109 236.432C314.416 236.727 314.666 237.228 314.618 237.511C314.569 237.793 314.149 238.27 313.838 238.379L300.832 242.899L310.72 247.872L310.712 247.847Z" fill="black"/>
<path d="M249.411 272.431C247.512 272.318 240.686 273.226 240.31 271.114C240.084 269.837 240.165 268.593 240.064 267.228L236.388 267.236L236.319 270.722C236.303 271.627 235.414 272.273 234.485 272.354C232.074 272.56 229.776 272.524 227.271 272.459L208.569 257.772C209.385 256.362 210.443 255.68 211.417 254.694L213.804 252.282L229.347 239.344L232.062 237.264L235.499 247.516L241.061 247.488L244.515 237.24L246.115 238.609C247.472 239.777 248.89 240.791 250.073 242.14C250.942 243.129 252.133 243.675 253.155 244.539L260.652 250.897C261.868 251.927 263.064 252.787 264.223 253.83C265.6 255.066 267.006 255.946 267.951 257.756C267.2 258.483 266.445 259.218 265.556 259.905L249.407 272.435L249.411 272.431Z" fill="white"/>
<path d="M270.787 240.75L262.232 240.799L256.827 235.547L256.839 230.583L261.864 225.562L270.839 225.526L276.002 230.66L276.03 235.511L270.787 240.75Z" fill="white"/>
<path d="M212.293 242.685L206.327 242.689L206.287 235.798L198.862 235.774L198.85 230.046L206.283 230.014L206.339 223.171L212.293 223.223L212.342 230.03L219.77 230.038L219.815 235.749L212.358 235.814L212.293 242.685Z" fill="white"/>
<path d="M243.954 264.691L233.225 264.707C232.619 264.707 231.436 264.534 231.064 264.085L229.368 258.446C229.19 257.853 228.895 256.867 229.323 256.35C230.539 254.88 231.763 253.296 232.833 251.757C233.035 251.471 233.908 251.236 234.263 251.236L242.487 251.256C243.38 251.256 243.776 251.802 244.2 252.424C245.081 253.712 246.01 254.839 247.036 256.047C247.395 256.471 247.553 257.17 247.391 257.715L245.638 263.734C245.489 264.243 244.632 264.687 243.954 264.691Z" fill="black"/>
<path d="M96.1088 223.34C95.4626 221.639 95.7259 219.769 96.8986 217.731C98.0713 215.692 99.551 214.531 101.338 214.248C103.133 213.952 105.41 214.597 108.17 216.185C110.93 217.772 112.633 219.416 113.28 221.117C113.934 222.804 113.674 224.666 112.502 226.705C111.329 228.744 109.845 229.912 108.05 230.208C106.263 230.491 103.99 229.839 101.23 228.251C98.47 226.664 96.7629 225.027 96.1088 223.34ZM107.609 226.355C108.603 226.392 109.339 225.994 109.818 225.162C110.297 224.329 110.266 223.5 109.727 222.673C109.195 221.832 107.986 220.869 106.1 219.784C104.214 218.699 102.774 218.138 101.78 218.102C100.793 218.051 100.061 218.442 99.5823 219.274C99.1037 220.106 99.1301 220.943 99.6616 221.784C100.201 222.611 101.414 223.567 103.3 224.652C105.186 225.737 106.623 226.305 107.609 226.355Z" fill="white"/>
<path d="M101.838 209.625L107.976 198.952L110.827 200.591C112.098 202.873 113.434 204.98 114.834 206.911C116.233 208.842 117.949 210.945 119.981 213.221L117.803 217.008C114.258 212.772 111.319 208.433 108.983 203.989L108.9 203.941L104.688 211.264L101.838 209.625Z" fill="white"/>
<path d="M120.118 202.104L117.455 200.572L121.487 193.561L124.15 195.093L120.118 202.104Z" fill="white"/>
<path d="M127.779 193.068C127.256 189.131 126.729 186.438 126.197 184.987C125.66 183.515 124.905 182.5 123.935 181.942C122.659 181.208 121.614 181.548 120.8 182.963C120.146 184.1 119.871 185.733 119.977 187.86L116.633 187.128C116.568 186.149 116.677 185.077 116.96 183.911C117.237 182.723 117.639 181.671 118.166 180.755C119.131 179.077 120.275 178.019 121.598 177.58C122.907 177.133 124.269 177.317 125.684 178.13C126.904 178.832 127.853 179.895 128.53 181.318C129.2 182.719 129.826 185.081 130.406 188.405L130.448 188.429L133.762 182.666L136.612 184.305L130.629 194.707L127.779 193.068Z" fill="white"/>
<path d="M125.183 172.792C124.536 171.092 124.8 169.222 125.972 167.183C127.145 165.144 128.625 163.983 130.412 163.701C132.207 163.404 134.484 164.05 137.244 165.637C140.004 167.225 141.707 168.869 142.353 170.569C143.007 172.256 142.748 174.119 141.576 176.158C140.403 178.196 138.919 179.364 137.124 179.661C135.337 179.943 133.064 179.291 130.304 177.704C127.544 176.116 125.837 174.479 125.183 172.792ZM136.683 175.807C137.677 175.844 138.413 175.446 138.892 174.614C139.37 173.782 139.34 172.952 138.801 172.125C138.269 171.284 137.06 170.321 135.174 169.236C133.288 168.151 131.848 167.591 130.853 167.554C129.867 167.504 129.135 167.895 128.656 168.727C128.177 169.559 128.204 170.395 128.735 171.236C129.275 172.063 130.488 173.019 132.374 174.104C134.26 175.189 135.696 175.757 136.683 175.807Z" fill="white"/>
<path d="M143.344 166.006C142.822 162.07 142.294 159.376 141.763 157.926C141.225 156.454 140.471 155.438 139.5 154.88C138.224 154.146 137.179 154.486 136.365 155.901C135.711 157.038 135.437 158.671 135.542 160.799L132.198 160.066C132.133 159.087 132.242 158.015 132.525 156.849C132.803 155.661 133.205 154.609 133.731 153.694C134.696 152.016 135.84 150.957 137.163 150.518C138.473 150.071 139.834 150.255 141.249 151.069C142.47 151.771 143.418 152.833 144.095 154.256C144.766 155.657 145.391 158.019 145.971 161.343L146.013 161.367L149.327 155.604L152.178 157.244L146.194 167.646L143.344 166.006Z" fill="white"/>
<path d="M147.3 137.179L143.818 143.233L146.564 145.006L146.588 144.964C146.677 144.167 146.921 143.421 147.32 142.728C148.214 141.174 149.32 140.214 150.639 139.846C151.957 139.479 153.373 139.73 154.884 140.6C158.463 142.658 159.027 145.816 156.578 150.074C155.685 151.627 154.556 152.916 153.192 153.94L150.802 151.596C152.174 150.558 153.136 149.561 153.686 148.604C154.859 146.565 154.592 145.055 152.886 144.074C151.499 143.276 150.407 143.571 149.609 144.958C149.258 145.568 149.175 146.323 149.359 147.222L147.624 150.239L139.125 144.797L144.45 135.539L147.3 137.179Z" fill="white"/>
<path d="M331.082 139.484L327.982 141.267L331.297 147.03L328.613 148.574L325.298 142.811L321.595 144.941L325.15 151.12L322.3 152.76L316.711 143.044L331.897 134.308L337.486 144.023L334.636 145.663L331.082 139.484Z" fill="white"/>
<path d="M332.881 158.062L332.857 158.021L325.763 158.78L323.525 154.889L333.58 154.56L338.771 146.257L341.009 150.147L336.983 155.758L337.007 155.8L343.881 155.14L346.071 158.947L336.284 159.261L330.944 167.787L328.659 163.814L332.881 158.062Z" fill="white"/>
<path d="M347.372 161.449C348.41 162.772 349.391 164.237 350.317 165.846C352.87 170.284 352.496 173.453 349.195 175.352C347.406 176.381 345.748 176.643 344.22 176.137C342.714 175.637 341.387 174.389 340.238 172.392C339.951 171.892 339.66 171.322 339.364 170.68L334.288 173.6L332.289 170.125L347.372 161.449ZM341.985 169.172C342.171 169.655 342.388 170.112 342.635 170.542C343.21 171.541 343.881 172.179 344.65 172.456C345.441 172.74 346.252 172.642 347.084 172.164C348.735 171.214 348.957 169.692 347.753 167.598C347.489 167.14 347.197 166.727 346.874 166.359L341.985 169.172Z" fill="white"/>
<path d="M344.247 180.034L346.91 178.503L350.943 185.513L348.28 187.045L344.247 180.034Z" fill="white"/>
<path d="M359.255 185.619C361.05 185.916 362.534 187.083 363.706 189.122C364.879 191.161 365.139 193.024 364.485 194.71C363.838 196.411 362.135 198.055 359.376 199.643C356.616 201.23 354.338 201.876 352.543 201.58C350.756 201.297 349.277 200.136 348.104 198.098C346.931 196.059 346.668 194.189 347.314 192.489C347.968 190.802 349.675 189.164 352.435 187.577C355.194 185.989 357.468 185.337 359.255 185.619ZM350.866 194.044C350.335 194.885 350.309 195.722 350.787 196.554C351.266 197.386 351.999 197.777 352.985 197.726C353.979 197.69 355.419 197.129 357.305 196.044C359.191 194.959 360.4 193.996 360.932 193.155C361.471 192.328 361.501 191.498 361.023 190.666C360.544 189.834 359.808 189.436 358.813 189.473C357.827 189.523 356.391 190.091 354.505 191.176C352.619 192.261 351.406 193.217 350.866 194.044Z" fill="white"/>
<path d="M368.23 197.467L374.369 208.139L371.519 209.779C368.907 209.731 366.415 209.826 364.042 210.065C361.669 210.304 358.988 210.73 355.999 211.342L353.821 207.556C359.264 206.621 364.494 206.262 369.509 206.477L369.592 206.43L365.38 199.107L368.23 197.467Z" fill="white"/>
<path d="M363.364 224.144L374.452 217.765L374.428 217.724L369.369 216.149L371.731 213.323L378.551 215.408L380.657 219.069L365.47 227.805L363.364 224.144Z" fill="white"/>
</svg>
